<svg width="432" height="161" viewBox="0 0 432 161" fill="none" xmlns="http://www.w3.org/2000/svg">
<rect width="432" height="161" rx="24" fill="black"/>
<path d="M42.2695 48.9336V52H30.4727V48.9336H42.2695ZM31.1172 23.5625V52H27.5234V23.5625H31.1172ZM56.1562 26.082L48.3828 52H44.7109L53.8711 23.5625H56.1758L56.1562 26.082ZM62.4453 52L54.6719 26.082L54.6328 23.5625H56.957L66.1172 52H62.4453ZM62.4453 41.4727V44.5586H48.7344V41.4727H62.4453ZM97.0156 37.8398V48.4453C96.7031 48.862 96.2279 49.3828 95.5898 50.0078C94.9648 50.6328 94.0859 51.1862 92.9531 51.668C91.8203 52.1497 90.3359 52.3906 88.5 52.3906C87.0286 52.3906 85.681 52.1432 84.457 51.6484C83.2461 51.1536 82.1979 50.4115 81.3125 49.4219C80.4401 48.4193 79.763 47.1758 79.2812 45.6914C78.7995 44.194 78.5586 42.4427 78.5586 40.4375V35.1055C78.5586 33.1133 78.7604 31.3685 79.1641 29.8711C79.5677 28.3737 80.1667 27.1302 80.9609 26.1406C81.7682 25.151 82.7643 24.4089 83.9492 23.9141C85.1471 23.4193 86.5404 23.1719 88.1289 23.1719C89.9648 23.1719 91.5273 23.5169 92.8164 24.207C94.1055 24.8971 95.1016 25.8932 95.8047 27.1953C96.5208 28.4974 96.9245 30.0599 97.0156 31.8828H93.4219C93.3307 30.7109 93.0833 29.7083 92.6797 28.875C92.276 28.0286 91.7031 27.3841 90.9609 26.9414C90.2188 26.4857 89.2747 26.2578 88.1289 26.2578C87.0352 26.2578 86.1107 26.4401 85.3555 26.8047C84.6003 27.1693 83.9818 27.7161 83.5 28.4453C83.0312 29.1745 82.6862 30.0924 82.4648 31.1992C82.2565 32.306 82.1523 33.5951 82.1523 35.0664V40.4375C82.1523 41.9479 82.3021 43.263 82.6016 44.3828C82.901 45.5026 83.3242 46.4271 83.8711 47.1562C84.431 47.8854 85.1016 48.4323 85.8828 48.7969C86.6641 49.1484 87.543 49.3242 88.5195 49.3242C89.6263 49.3242 90.4987 49.207 91.1367 48.9727C91.7747 48.7383 92.263 48.4714 92.6016 48.1719C92.9531 47.8724 93.2331 47.6315 93.4414 47.4492V40.8867H88.2266V37.8398H97.0156ZM102.855 23.5625H110.805C112.654 23.5625 114.203 23.888 115.453 24.5391C116.716 25.1901 117.667 26.1536 118.305 27.4297C118.956 28.6927 119.281 30.2487 119.281 32.0977C119.281 33.3997 119.066 34.5911 118.637 35.6719C118.207 36.7396 117.582 37.651 116.762 38.4062C115.941 39.1484 114.945 39.7018 113.773 40.0664L112.797 40.4766H105.707L105.668 37.4102H110.766C111.859 37.4102 112.771 37.1758 113.5 36.707C114.229 36.2253 114.776 35.5807 115.141 34.7734C115.505 33.9661 115.688 33.0742 115.688 32.0977C115.688 31.0039 115.525 30.0469 115.199 29.2266C114.874 28.4062 114.353 27.7747 113.637 27.332C112.934 26.8763 111.99 26.6484 110.805 26.6484H106.449V52H102.855V23.5625ZM116.508 52L110.844 39.1094L114.574 39.0898L120.355 51.7656V52H116.508ZM133.305 26.082L125.531 52H121.859L131.02 23.5625H133.324L133.305 26.082ZM139.594 52L131.82 26.082L131.781 23.5625H134.105L143.266 52H139.594ZM139.594 41.4727V44.5586H125.883V41.4727H139.594ZM165.766 23.5625V52H162.152L150.766 30.0664V52H147.172V23.5625H150.766L162.211 45.5547V23.5625H165.766ZM178.422 52H173.578L173.617 48.9336H178.422C180.128 48.9336 181.514 48.6081 182.582 47.957C183.65 47.293 184.438 46.3164 184.945 45.0273C185.453 43.7253 185.707 42.1172 185.707 40.2031V35.3398C185.707 33.8294 185.564 32.5273 185.277 31.4336C184.991 30.3398 184.561 29.4414 183.988 28.7383C183.415 28.0352 182.693 27.5143 181.82 27.1758C180.948 26.8242 179.926 26.6484 178.754 26.6484H173.48V23.5625H178.754C180.355 23.5625 181.801 23.8164 183.09 24.3242C184.379 24.819 185.486 25.5677 186.41 26.5703C187.335 27.5599 188.038 28.7904 188.52 30.2617C189.014 31.7331 189.262 33.4388 189.262 35.3789V40.2031C189.262 42.1432 189.014 43.849 188.52 45.3203C188.038 46.7917 187.328 48.0221 186.391 49.0117C185.453 50.0013 184.314 50.75 182.973 51.2578C181.645 51.7526 180.128 52 178.422 52ZM175.57 23.5625V52H171.977V23.5625H175.57ZM210.121 48.9336V52H197.777V48.9336H210.121ZM198.422 23.5625V52H194.828V23.5625H198.422ZM208.461 35.7891V38.8555H197.777V35.7891H208.461ZM209.926 23.5625V26.6484H197.777V23.5625H209.926ZM232.25 23.5625V52H228.695V23.5625H232.25ZM239.73 23.5625V26.6484H221.234V23.5625H239.73ZM243.949 23.5625H251.898C253.747 23.5625 255.297 23.888 256.547 24.5391C257.81 25.1901 258.76 26.1536 259.398 27.4297C260.049 28.6927 260.375 30.2487 260.375 32.0977C260.375 33.3997 260.16 34.5911 259.73 35.6719C259.301 36.7396 258.676 37.651 257.855 38.4062C257.035 39.1484 256.039 39.7018 254.867 40.0664L253.891 40.4766H246.801L246.762 37.4102H251.859C252.953 37.4102 253.865 37.1758 254.594 36.707C255.323 36.2253 255.87 35.5807 256.234 34.7734C256.599 33.9661 256.781 33.0742 256.781 32.0977C256.781 31.0039 256.618 30.0469 256.293 29.2266C255.967 28.4062 255.447 27.7747 254.73 27.332C254.027 26.8763 253.083 26.6484 251.898 26.6484H247.543V52H243.949V23.5625ZM257.602 52L251.938 39.1094L255.668 39.0898L261.449 51.7656V52H257.602ZM274.398 26.082L266.625 52H262.953L272.113 23.5625H274.418L274.398 26.082ZM280.688 52L272.914 26.082L272.875 23.5625H275.199L284.359 52H280.688ZM280.688 41.4727V44.5586H266.977V41.4727H280.688ZM294.359 47.6836L301.195 23.5625H305.102L296.273 52H293.52L294.359 47.6836ZM288.227 23.5625L295.004 47.6836L295.902 52H293.148L284.32 23.5625H288.227ZM324.262 48.9336V52H311.918V48.9336H324.262ZM312.562 23.5625V52H308.969V23.5625H312.562ZM322.602 35.7891V38.8555H311.918V35.7891H322.602ZM324.066 23.5625V26.6484H311.918V23.5625H324.066ZM328.871 23.5625H336.82C338.669 23.5625 340.219 23.888 341.469 24.5391C342.732 25.1901 343.682 26.1536 344.32 27.4297C344.971 28.6927 345.297 30.2487 345.297 32.0977C345.297 33.3997 345.082 34.5911 344.652 35.6719C344.223 36.7396 343.598 37.651 342.777 38.4062C341.957 39.1484 340.961 39.7018 339.789 40.0664L338.812 40.4766H331.723L331.684 37.4102H336.781C337.875 37.4102 338.786 37.1758 339.516 36.707C340.245 36.2253 340.792 35.5807 341.156 34.7734C341.521 33.9661 341.703 33.0742 341.703 32.0977C341.703 31.0039 341.54 30.0469 341.215 29.2266C340.889 28.4062 340.368 27.7747 339.652 27.332C338.949 26.8763 338.005 26.6484 336.82 26.6484H332.465V52H328.871V23.5625ZM342.523 52L336.859 39.1094L340.59 39.0898L346.371 51.7656V52H342.523ZM362.543 44.8125C362.543 44.1484 362.465 43.5625 362.309 43.0547C362.152 42.5339 361.879 42.0651 361.488 41.6484C361.098 41.2318 360.551 40.8346 359.848 40.457C359.145 40.0794 358.253 39.6953 357.172 39.3047C356 38.888 354.939 38.4258 353.988 37.918C353.038 37.3971 352.224 36.8047 351.547 36.1406C350.883 35.4766 350.368 34.7148 350.004 33.8555C349.639 32.9961 349.457 32.013 349.457 30.9062C349.457 29.7995 349.646 28.7773 350.023 27.8398C350.414 26.9023 350.961 26.0885 351.664 25.3984C352.38 24.6953 353.24 24.1484 354.242 23.7578C355.245 23.3672 356.365 23.1719 357.602 23.1719C359.451 23.1719 361.007 23.582 362.27 24.4023C363.546 25.2096 364.509 26.2708 365.16 27.5859C365.811 28.888 366.137 30.2812 366.137 31.7656H362.543C362.543 30.6979 362.367 29.7539 362.016 28.9336C361.677 28.1003 361.143 27.4492 360.414 26.9805C359.698 26.4987 358.76 26.2578 357.602 26.2578C356.56 26.2578 355.701 26.4596 355.023 26.8633C354.359 27.2669 353.865 27.8138 353.539 28.5039C353.227 29.194 353.07 29.9818 353.07 30.8672C353.07 31.4661 353.174 32.013 353.383 32.5078C353.591 32.9896 353.91 33.4388 354.34 33.8555C354.783 34.2721 355.329 34.6562 355.98 35.0078C356.645 35.3594 357.426 35.6979 358.324 36.0234C359.717 36.4792 360.909 36.987 361.898 37.5469C362.888 38.1068 363.695 38.7383 364.32 39.4414C364.945 40.1315 365.401 40.9193 365.688 41.8047C365.987 42.6771 366.137 43.6667 366.137 44.7734C366.137 45.9323 365.941 46.9805 365.551 47.918C365.173 48.8555 364.62 49.6562 363.891 50.3203C363.161 50.9844 362.283 51.4987 361.254 51.8633C360.225 52.2148 359.066 52.3906 357.777 52.3906C356.658 52.3906 355.557 52.2083 354.477 51.8438C353.409 51.4792 352.439 50.9323 351.566 50.2031C350.694 49.474 349.997 48.5755 349.477 47.5078C348.956 46.4271 348.695 45.1771 348.695 43.7578H352.289C352.289 44.7344 352.432 45.5742 352.719 46.2773C353.005 46.9674 353.402 47.5404 353.91 47.9961C354.418 48.4518 354.997 48.7904 355.648 49.0117C356.312 49.2201 357.022 49.3242 357.777 49.3242C358.819 49.3242 359.691 49.1419 360.395 48.7773C361.111 48.4128 361.645 47.8919 361.996 47.2148C362.361 46.5378 362.543 45.737 362.543 44.8125ZM386.137 48.9336V52H373.793V48.9336H386.137ZM374.438 23.5625V52H370.844V23.5625H374.438ZM384.477 35.7891V38.8555H373.793V35.7891H384.477ZM385.941 23.5625V26.6484H373.793V23.5625H385.941ZM376.332 21.4531L380.121 15.7109H384.477L379.242 21.4531H376.332ZM406.02 48.9336V52H393.676V48.9336H406.02ZM394.32 23.5625V52H390.727V23.5625H394.32ZM404.359 35.7891V38.8555H393.676V35.7891H404.359ZM405.824 23.5625V26.6484H393.676V23.5625H405.824ZM104.359 99H99.5156L99.5547 95.9336H104.359C106.065 95.9336 107.452 95.6081 108.52 94.957C109.587 94.293 110.375 93.3164 110.883 92.0273C111.391 90.7253 111.645 89.1172 111.645 87.2031V82.3398C111.645 80.8294 111.501 79.5273 111.215 78.4336C110.928 77.3398 110.499 76.4414 109.926 75.7383C109.353 75.0352 108.63 74.5143 107.758 74.1758C106.885 73.8242 105.863 73.6484 104.691 73.6484H99.418V70.5625H104.691C106.293 70.5625 107.738 70.8164 109.027 71.3242C110.316 71.819 111.423 72.5677 112.348 73.5703C113.272 74.5599 113.975 75.7904 114.457 77.2617C114.952 78.7331 115.199 80.4388 115.199 82.3789V87.2031C115.199 89.1432 114.952 90.849 114.457 92.3203C113.975 93.7917 113.266 95.0221 112.328 96.0117C111.391 97.0013 110.251 97.75 108.91 98.2578C107.582 98.7526 106.065 99 104.359 99ZM101.508 70.5625V99H97.9141V70.5625H101.508ZM136.059 95.9336V99H123.715V95.9336H136.059ZM124.359 70.5625V99H120.766V70.5625H124.359ZM134.398 82.7891V85.8555H123.715V82.7891H134.398ZM135.863 70.5625V73.6484H123.715V70.5625H135.863ZM153.09 91.8125C153.09 91.1484 153.012 90.5625 152.855 90.0547C152.699 89.5339 152.426 89.0651 152.035 88.6484C151.645 88.2318 151.098 87.8346 150.395 87.457C149.691 87.0794 148.799 86.6953 147.719 86.3047C146.547 85.888 145.486 85.4258 144.535 84.918C143.585 84.3971 142.771 83.8047 142.094 83.1406C141.43 82.4766 140.915 81.7148 140.551 80.8555C140.186 79.9961 140.004 79.013 140.004 77.9062C140.004 76.7995 140.193 75.7773 140.57 74.8398C140.961 73.9023 141.508 73.0885 142.211 72.3984C142.927 71.6953 143.786 71.1484 144.789 70.7578C145.792 70.3672 146.911 70.1719 148.148 70.1719C149.997 70.1719 151.553 70.582 152.816 71.4023C154.092 72.2096 155.056 73.2708 155.707 74.5859C156.358 75.888 156.684 77.2812 156.684 78.7656H153.09C153.09 77.6979 152.914 76.7539 152.562 75.9336C152.224 75.1003 151.69 74.4492 150.961 73.9805C150.245 73.4987 149.307 73.2578 148.148 73.2578C147.107 73.2578 146.247 73.4596 145.57 73.8633C144.906 74.2669 144.411 74.8138 144.086 75.5039C143.773 76.194 143.617 76.9818 143.617 77.8672C143.617 78.4661 143.721 79.013 143.93 79.5078C144.138 79.9896 144.457 80.4388 144.887 80.8555C145.329 81.2721 145.876 81.6562 146.527 82.0078C147.191 82.3594 147.973 82.6979 148.871 83.0234C150.264 83.4792 151.456 83.987 152.445 84.5469C153.435 85.1068 154.242 85.7383 154.867 86.4414C155.492 87.1315 155.948 87.9193 156.234 88.8047C156.534 89.6771 156.684 90.6667 156.684 91.7734C156.684 92.9323 156.488 93.9805 156.098 94.918C155.72 95.8555 155.167 96.6562 154.438 97.3203C153.708 97.9844 152.829 98.4987 151.801 98.8633C150.772 99.2148 149.613 99.3906 148.324 99.3906C147.204 99.3906 146.104 99.2083 145.023 98.8438C143.956 98.4792 142.986 97.9323 142.113 97.2031C141.241 96.474 140.544 95.5755 140.023 94.5078C139.503 93.4271 139.242 92.1771 139.242 90.7578H142.836C142.836 91.7344 142.979 92.5742 143.266 93.2773C143.552 93.9674 143.949 94.5404 144.457 94.9961C144.965 95.4518 145.544 95.7904 146.195 96.0117C146.859 96.2201 147.569 96.3242 148.324 96.3242C149.366 96.3242 150.238 96.1419 150.941 95.7773C151.658 95.4128 152.191 94.8919 152.543 94.2148C152.908 93.5378 153.09 92.737 153.09 91.8125ZM179.633 87.8477H173.422V84.7812H179.633C180.805 84.7812 181.749 84.5469 182.465 84.0781C183.194 83.6094 183.721 82.9583 184.047 82.125C184.385 81.2917 184.555 80.3411 184.555 79.2734C184.555 78.2969 184.385 77.3789 184.047 76.5195C183.721 75.6602 183.194 74.9701 182.465 74.4492C181.749 73.9154 180.805 73.6484 179.633 73.6484H174.164V99H170.57V70.5625H179.633C181.469 70.5625 183.018 70.9336 184.281 71.6758C185.544 72.418 186.501 73.4466 187.152 74.7617C187.816 76.0638 188.148 77.5547 188.148 79.2344C188.148 81.0573 187.816 82.6133 187.152 83.9023C186.501 85.1914 185.544 86.1745 184.281 86.8516C183.018 87.5156 181.469 87.8477 179.633 87.8477ZM194.359 70.5625L200.16 84.8398L205.98 70.5625H210.043L201.957 88.375V99H198.363V88.375L190.277 70.5625H194.359ZM213.793 70.5625H221.742C223.591 70.5625 225.141 70.888 226.391 71.5391C227.654 72.1901 228.604 73.1536 229.242 74.4297C229.893 75.6927 230.219 77.2487 230.219 79.0977C230.219 80.3997 230.004 81.5911 229.574 82.6719C229.145 83.7396 228.52 84.651 227.699 85.4062C226.879 86.1484 225.883 86.7018 224.711 87.0664L223.734 87.4766H216.645L216.605 84.4102H221.703C222.797 84.4102 223.708 84.1758 224.438 83.707C225.167 83.2253 225.714 82.5807 226.078 81.7734C226.443 80.9661 226.625 80.0742 226.625 79.0977C226.625 78.0039 226.462 77.0469 226.137 76.2266C225.811 75.4062 225.29 74.7747 224.574 74.332C223.871 73.8763 222.927 73.6484 221.742 73.6484H217.387V99H213.793V70.5625ZM227.445 99L221.781 86.1094L225.512 86.0898L231.293 98.7656V99H227.445ZM250.316 95.9336V99H237.973V95.9336H250.316ZM238.617 70.5625V99H235.023V70.5625H238.617ZM248.656 82.7891V85.8555H237.973V82.7891H248.656ZM250.121 70.5625V73.6484H237.973V70.5625H250.121ZM240.512 68.4531L244.301 62.7109H248.656L243.422 68.4531H240.512ZM273.5 70.5625V99H269.887L258.5 77.0664V99H254.906V70.5625H258.5L269.945 92.5547V70.5625H273.5ZM295.004 95.9336V99H282.66V95.9336H295.004ZM283.305 70.5625V99H279.711V70.5625H283.305ZM293.344 82.7891V85.8555H282.66V82.7891H293.344ZM294.809 70.5625V73.6484H282.66V70.5625H294.809ZM285.199 68.4531L288.988 62.7109H293.344L288.109 68.4531H285.199ZM314.887 95.9336V99H302.543V95.9336H314.887ZM303.188 70.5625V99H299.594V70.5625H303.188ZM313.227 82.7891V85.8555H302.543V82.7891H313.227ZM314.691 70.5625V73.6484H302.543V70.5625H314.691ZM331.918 91.8125C331.918 91.1484 331.84 90.5625 331.684 90.0547C331.527 89.5339 331.254 89.0651 330.863 88.6484C330.473 88.2318 329.926 87.8346 329.223 87.457C328.52 87.0794 327.628 86.6953 326.547 86.3047C325.375 85.888 324.314 85.4258 323.363 84.918C322.413 84.3971 321.599 83.8047 320.922 83.1406C320.258 82.4766 319.743 81.7148 319.379 80.8555C319.014 79.9961 318.832 79.013 318.832 77.9062C318.832 76.7995 319.021 75.7773 319.398 74.8398C319.789 73.9023 320.336 73.0885 321.039 72.3984C321.755 71.6953 322.615 71.1484 323.617 70.7578C324.62 70.3672 325.74 70.1719 326.977 70.1719C328.826 70.1719 330.382 70.582 331.645 71.4023C332.921 72.2096 333.884 73.2708 334.535 74.5859C335.186 75.888 335.512 77.2812 335.512 78.7656H331.918C331.918 77.6979 331.742 76.7539 331.391 75.9336C331.052 75.1003 330.518 74.4492 329.789 73.9805C329.073 73.4987 328.135 73.2578 326.977 73.2578C325.935 73.2578 325.076 73.4596 324.398 73.8633C323.734 74.2669 323.24 74.8138 322.914 75.5039C322.602 76.194 322.445 76.9818 322.445 77.8672C322.445 78.4661 322.549 79.013 322.758 79.5078C322.966 79.9896 323.285 80.4388 323.715 80.8555C324.158 81.2721 324.704 81.6562 325.355 82.0078C326.02 82.3594 326.801 82.6979 327.699 83.0234C329.092 83.4792 330.284 83.987 331.273 84.5469C332.263 85.1068 333.07 85.7383 333.695 86.4414C334.32 87.1315 334.776 87.9193 335.062 88.8047C335.362 89.6771 335.512 90.6667 335.512 91.7734C335.512 92.9323 335.316 93.9805 334.926 94.918C334.548 95.8555 333.995 96.6562 333.266 97.3203C332.536 97.9844 331.658 98.4987 330.629 98.8633C329.6 99.2148 328.441 99.3906 327.152 99.3906C326.033 99.3906 324.932 99.2083 323.852 98.8438C322.784 98.4792 321.814 97.9323 320.941 97.2031C320.069 96.474 319.372 95.5755 318.852 94.5078C318.331 93.4271 318.07 92.1771 318.07 90.7578H321.664C321.664 91.7344 321.807 92.5742 322.094 93.2773C322.38 93.9674 322.777 94.5404 323.285 94.9961C323.793 95.4518 324.372 95.7904 325.023 96.0117C325.688 96.2201 326.397 96.3242 327.152 96.3242C328.194 96.3242 329.066 96.1419 329.77 95.7773C330.486 95.4128 331.02 94.8919 331.371 94.2148C331.736 93.5378 331.918 92.737 331.918 91.8125Z" fill="white"/>
<path d="M109.096 131.639C109.096 130.838 109.19 130.109 109.379 129.451C109.574 128.787 109.854 128.217 110.219 127.742C110.577 127.267 111.013 126.899 111.527 126.639C112.048 126.372 112.634 126.238 113.285 126.238C113.871 126.238 114.382 126.342 114.818 126.551C115.261 126.753 115.652 127.042 115.99 127.42V122H118.324V137H116.205L116.098 135.896C115.759 136.313 115.355 136.635 114.887 136.863C114.418 137.085 113.878 137.195 113.266 137.195C112.621 137.195 112.042 137.062 111.527 136.795C111.013 136.521 110.577 136.144 110.219 135.662C109.861 135.187 109.584 134.624 109.389 133.973C109.193 133.315 109.096 132.605 109.096 131.844V131.639ZM111.43 131.844C111.43 132.312 111.475 132.755 111.566 133.172C111.658 133.589 111.801 133.95 111.996 134.256C112.191 134.575 112.442 134.826 112.748 135.008C113.054 135.184 113.422 135.271 113.852 135.271C114.379 135.271 114.815 135.158 115.16 134.93C115.505 134.695 115.782 134.38 115.99 133.982V129.441C115.782 129.051 115.505 128.742 115.16 128.514C114.822 128.279 114.392 128.162 113.871 128.162C113.435 128.162 113.061 128.253 112.748 128.436C112.442 128.618 112.195 128.868 112.006 129.188C111.804 129.507 111.658 129.878 111.566 130.301C111.475 130.717 111.43 131.163 111.43 131.639V131.844ZM126.352 137.195C125.57 137.195 124.854 137.065 124.203 136.805C123.559 136.544 123.005 136.183 122.543 135.721C122.081 135.265 121.723 134.728 121.469 134.109C121.221 133.484 121.098 132.811 121.098 132.088V131.688C121.098 130.861 121.228 130.112 121.488 129.441C121.749 128.771 122.107 128.198 122.562 127.723C123.018 127.247 123.546 126.883 124.145 126.629C124.75 126.368 125.395 126.238 126.078 126.238C126.84 126.238 127.514 126.368 128.1 126.629C128.686 126.883 129.177 127.238 129.574 127.693C129.971 128.156 130.271 128.706 130.473 129.344C130.674 129.982 130.775 130.678 130.775 131.434V132.439H123.451V132.488C123.523 132.951 123.633 133.338 123.783 133.65C123.933 133.963 124.138 134.243 124.398 134.49C124.659 134.751 124.965 134.952 125.316 135.096C125.674 135.239 126.065 135.311 126.488 135.311C127.068 135.311 127.608 135.2 128.109 134.979C128.611 134.751 129.024 134.428 129.35 134.012L130.6 135.223C130.248 135.73 129.708 136.186 128.979 136.59C128.256 136.993 127.38 137.195 126.352 137.195ZM126.068 128.133C125.736 128.133 125.427 128.195 125.141 128.318C124.861 128.436 124.61 128.605 124.389 128.826C124.167 129.054 123.982 129.327 123.832 129.646C123.682 129.965 123.572 130.327 123.5 130.73H128.471V130.574C128.471 130.268 128.415 129.965 128.305 129.666C128.194 129.36 128.038 129.093 127.836 128.865C127.641 128.644 127.393 128.468 127.094 128.338C126.801 128.201 126.459 128.133 126.068 128.133ZM154.984 132.625C154.919 133.315 154.757 133.943 154.496 134.51C154.236 135.07 153.894 135.548 153.471 135.945C153.041 136.349 152.53 136.661 151.938 136.883C151.352 137.098 150.701 137.205 149.984 137.205C149.398 137.205 148.858 137.127 148.363 136.971C147.875 136.808 147.439 136.58 147.055 136.287C146.684 136.014 146.358 135.685 146.078 135.301C145.805 134.91 145.574 134.484 145.385 134.021C145.196 133.566 145.053 133.071 144.955 132.537C144.864 132.003 144.818 131.447 144.818 130.867V128.924C144.818 128.37 144.864 127.837 144.955 127.322C145.046 126.808 145.183 126.323 145.365 125.867C145.561 125.359 145.811 124.9 146.117 124.49C146.43 124.074 146.788 123.719 147.191 123.426C147.576 123.159 147.999 122.951 148.461 122.801C148.93 122.651 149.441 122.576 149.994 122.576C150.743 122.576 151.41 122.687 151.996 122.908C152.589 123.13 153.093 123.442 153.51 123.846C153.933 124.256 154.265 124.751 154.506 125.33C154.753 125.91 154.913 126.554 154.984 127.264H152.641C152.602 126.84 152.52 126.46 152.396 126.121C152.279 125.776 152.117 125.483 151.908 125.242C151.693 125.001 151.43 124.819 151.117 124.695C150.805 124.565 150.43 124.5 149.994 124.5C149.688 124.5 149.411 124.542 149.164 124.627C148.923 124.712 148.708 124.832 148.52 124.988C148.259 125.177 148.041 125.424 147.865 125.73C147.696 126.03 147.556 126.365 147.445 126.736C147.361 127.062 147.296 127.41 147.25 127.781C147.211 128.146 147.191 128.52 147.191 128.904V130.867C147.191 131.342 147.217 131.788 147.27 132.205C147.328 132.622 147.416 133.003 147.533 133.348C147.624 133.634 147.738 133.895 147.875 134.129C148.018 134.363 148.188 134.565 148.383 134.734C148.585 134.917 148.816 135.057 149.076 135.154C149.343 135.245 149.646 135.291 149.984 135.291C150.388 135.291 150.746 135.232 151.059 135.115C151.371 134.998 151.638 134.826 151.859 134.598C152.074 134.376 152.247 134.1 152.377 133.768C152.507 133.436 152.592 133.055 152.631 132.625H154.984ZM157.904 122H163.598V135.066H166.801V137H157.904V135.066H161.244V123.943H157.904V122ZM176.215 137C176.143 136.87 176.085 136.714 176.039 136.531C176 136.342 175.964 136.147 175.932 135.945C175.769 136.115 175.583 136.277 175.375 136.434C175.173 136.583 174.945 136.714 174.691 136.824C174.438 136.941 174.164 137.033 173.871 137.098C173.578 137.163 173.262 137.195 172.924 137.195C172.377 137.195 171.876 137.117 171.42 136.961C170.971 136.798 170.587 136.577 170.268 136.297C169.942 136.023 169.688 135.695 169.506 135.311C169.33 134.92 169.242 134.5 169.242 134.051C169.242 133.471 169.356 132.96 169.584 132.518C169.818 132.068 170.157 131.697 170.6 131.404C171.01 131.131 171.514 130.923 172.113 130.779C172.719 130.636 173.402 130.564 174.164 130.564H175.863V129.852C175.863 129.578 175.814 129.331 175.717 129.109C175.626 128.888 175.492 128.696 175.316 128.533C175.128 128.37 174.896 128.247 174.623 128.162C174.356 128.071 174.047 128.025 173.695 128.025C173.376 128.025 173.096 128.064 172.855 128.143C172.621 128.221 172.426 128.328 172.27 128.465C172.113 128.589 171.996 128.742 171.918 128.924C171.846 129.1 171.811 129.288 171.811 129.49H169.467C169.473 129.067 169.574 128.66 169.77 128.27C169.965 127.879 170.251 127.534 170.629 127.234C170.993 126.928 171.443 126.688 171.977 126.512C172.517 126.329 173.132 126.238 173.822 126.238C174.441 126.238 175.017 126.316 175.551 126.473C176.091 126.622 176.557 126.847 176.947 127.146C177.338 127.446 177.644 127.827 177.865 128.289C178.087 128.745 178.197 129.272 178.197 129.871V134.568C178.197 135.044 178.23 135.473 178.295 135.857C178.367 136.235 178.467 136.561 178.598 136.834V137H176.215ZM173.373 135.32C173.679 135.32 173.962 135.281 174.223 135.203C174.49 135.125 174.73 135.024 174.945 134.9C175.16 134.777 175.346 134.637 175.502 134.48C175.658 134.324 175.779 134.161 175.863 133.992V132.039H174.359C173.852 132.039 173.412 132.088 173.041 132.186C172.67 132.277 172.374 132.41 172.152 132.586C171.957 132.736 171.811 132.915 171.713 133.123C171.622 133.331 171.576 133.566 171.576 133.826C171.576 134.041 171.615 134.243 171.693 134.432C171.771 134.614 171.885 134.77 172.035 134.9C172.185 135.031 172.37 135.135 172.592 135.213C172.813 135.285 173.074 135.32 173.373 135.32ZM188.783 126.238C189.161 126.238 189.525 126.264 189.877 126.316C190.235 126.368 190.515 126.43 190.717 126.502L190.385 128.807C190.027 128.729 189.672 128.67 189.32 128.631C188.975 128.592 188.63 128.572 188.285 128.572C187.895 128.572 187.543 128.611 187.23 128.689C186.918 128.768 186.641 128.888 186.4 129.051C186.14 129.207 185.919 129.406 185.736 129.646C185.554 129.887 185.401 130.164 185.277 130.477V137H182.943V126.434H185.131L185.229 127.898L185.238 128.143C185.668 127.55 186.182 127.085 186.781 126.746C187.387 126.408 188.054 126.238 188.783 126.238ZM194.027 126.434H199.633V135.066H202.738V137H194.027V135.066H197.279V128.377H194.027V126.434ZM197.064 123.699C197.064 123.51 197.097 123.338 197.162 123.182C197.227 123.019 197.322 122.879 197.445 122.762C197.562 122.651 197.702 122.566 197.865 122.508C198.035 122.443 198.223 122.41 198.432 122.41C198.783 122.41 199.066 122.501 199.281 122.684C199.503 122.859 199.63 123.087 199.662 123.367C199.708 123.654 199.659 123.904 199.516 124.119C199.372 124.327 199.164 124.467 198.891 124.539C198.754 124.663 198.591 124.744 198.402 124.783C198.214 124.822 198.005 124.806 197.777 124.734C197.543 124.663 197.364 124.536 197.24 124.354C197.123 124.165 197.064 123.947 197.064 123.699ZM212.406 134.139C212.406 133.956 212.364 133.794 212.279 133.65C212.201 133.507 212.068 133.37 211.879 133.24C211.677 133.123 211.413 133.012 211.088 132.908C210.762 132.804 210.355 132.706 209.867 132.615C209.255 132.492 208.695 132.339 208.188 132.156C207.686 131.974 207.253 131.753 206.889 131.492C206.531 131.245 206.251 130.952 206.049 130.613C205.847 130.275 205.746 129.881 205.746 129.432C205.746 129.002 205.847 128.595 206.049 128.211C206.257 127.82 206.553 127.479 206.938 127.186C207.315 126.893 207.771 126.661 208.305 126.492C208.845 126.323 209.444 126.238 210.102 126.238C210.805 126.238 211.436 126.326 211.996 126.502C212.556 126.671 213.031 126.906 213.422 127.205C213.806 127.505 214.102 127.859 214.311 128.27C214.519 128.68 214.623 129.122 214.623 129.598H212.289C212.289 129.402 212.247 129.217 212.162 129.041C212.084 128.859 211.967 128.696 211.811 128.553C211.628 128.383 211.394 128.25 211.107 128.152C210.821 128.048 210.486 127.996 210.102 127.996C209.75 127.996 209.441 128.035 209.174 128.113C208.913 128.185 208.699 128.286 208.529 128.416C208.36 128.533 208.233 128.673 208.148 128.836C208.064 128.992 208.021 129.158 208.021 129.334C208.021 129.516 208.057 129.682 208.129 129.832C208.201 129.975 208.327 130.102 208.51 130.213C208.679 130.33 208.913 130.438 209.213 130.535C209.519 130.633 209.903 130.721 210.365 130.799C211.01 130.916 211.599 131.059 212.133 131.229C212.667 131.398 213.122 131.606 213.5 131.854C213.878 132.114 214.171 132.42 214.379 132.771C214.587 133.123 214.691 133.54 214.691 134.021C214.691 134.49 214.581 134.92 214.359 135.311C214.145 135.701 213.839 136.036 213.441 136.316C213.038 136.596 212.556 136.814 211.996 136.971C211.436 137.127 210.814 137.205 210.131 137.205C209.369 137.205 208.692 137.104 208.1 136.902C207.514 136.701 207.022 136.434 206.625 136.102C206.221 135.776 205.915 135.402 205.707 134.979C205.499 134.555 205.395 134.126 205.395 133.689H207.66C207.68 134.015 207.764 134.292 207.914 134.52C208.07 134.741 208.266 134.92 208.5 135.057C208.728 135.2 208.988 135.304 209.281 135.369C209.574 135.428 209.87 135.457 210.17 135.457C210.574 135.457 210.925 135.415 211.225 135.33C211.531 135.245 211.775 135.132 211.957 134.988C212.107 134.871 212.217 134.744 212.289 134.607C212.367 134.464 212.406 134.308 212.406 134.139ZM224.418 134.139C224.418 133.956 224.376 133.794 224.291 133.65C224.213 133.507 224.079 133.37 223.891 133.24C223.689 133.123 223.425 133.012 223.1 132.908C222.774 132.804 222.367 132.706 221.879 132.615C221.267 132.492 220.707 132.339 220.199 132.156C219.698 131.974 219.265 131.753 218.9 131.492C218.542 131.245 218.262 130.952 218.061 130.613C217.859 130.275 217.758 129.881 217.758 129.432C217.758 129.002 217.859 128.595 218.061 128.211C218.269 127.82 218.565 127.479 218.949 127.186C219.327 126.893 219.783 126.661 220.316 126.492C220.857 126.323 221.456 126.238 222.113 126.238C222.816 126.238 223.448 126.326 224.008 126.502C224.568 126.671 225.043 126.906 225.434 127.205C225.818 127.505 226.114 127.859 226.322 128.27C226.531 128.68 226.635 129.122 226.635 129.598H224.301C224.301 129.402 224.258 129.217 224.174 129.041C224.096 128.859 223.979 128.696 223.822 128.553C223.64 128.383 223.406 128.25 223.119 128.152C222.833 128.048 222.497 127.996 222.113 127.996C221.762 127.996 221.452 128.035 221.186 128.113C220.925 128.185 220.71 128.286 220.541 128.416C220.372 128.533 220.245 128.673 220.16 128.836C220.076 128.992 220.033 129.158 220.033 129.334C220.033 129.516 220.069 129.682 220.141 129.832C220.212 129.975 220.339 130.102 220.521 130.213C220.691 130.33 220.925 130.438 221.225 130.535C221.531 130.633 221.915 130.721 222.377 130.799C223.021 130.916 223.611 131.059 224.145 131.229C224.678 131.398 225.134 131.606 225.512 131.854C225.889 132.114 226.182 132.42 226.391 132.771C226.599 133.123 226.703 133.54 226.703 134.021C226.703 134.49 226.592 134.92 226.371 135.311C226.156 135.701 225.85 136.036 225.453 136.316C225.049 136.596 224.568 136.814 224.008 136.971C223.448 137.127 222.826 137.205 222.143 137.205C221.381 137.205 220.704 137.104 220.111 136.902C219.525 136.701 219.034 136.434 218.637 136.102C218.233 135.776 217.927 135.402 217.719 134.979C217.51 134.555 217.406 134.126 217.406 133.689H219.672C219.691 134.015 219.776 134.292 219.926 134.52C220.082 134.741 220.277 134.92 220.512 135.057C220.74 135.2 221 135.304 221.293 135.369C221.586 135.428 221.882 135.457 222.182 135.457C222.585 135.457 222.937 135.415 223.236 135.33C223.542 135.245 223.786 135.132 223.969 134.988C224.118 134.871 224.229 134.744 224.301 134.607C224.379 134.464 224.418 134.308 224.418 134.139ZM234.457 137.195C233.676 137.195 232.96 137.065 232.309 136.805C231.664 136.544 231.111 136.183 230.648 135.721C230.186 135.265 229.828 134.728 229.574 134.109C229.327 133.484 229.203 132.811 229.203 132.088V131.688C229.203 130.861 229.333 130.112 229.594 129.441C229.854 128.771 230.212 128.198 230.668 127.723C231.124 127.247 231.651 126.883 232.25 126.629C232.855 126.368 233.5 126.238 234.184 126.238C234.945 126.238 235.619 126.368 236.205 126.629C236.791 126.883 237.283 127.238 237.68 127.693C238.077 128.156 238.376 128.706 238.578 129.344C238.78 129.982 238.881 130.678 238.881 131.434V132.439H231.557V132.488C231.628 132.951 231.739 133.338 231.889 133.65C232.038 133.963 232.243 134.243 232.504 134.49C232.764 134.751 233.07 134.952 233.422 135.096C233.78 135.239 234.171 135.311 234.594 135.311C235.173 135.311 235.714 135.2 236.215 134.979C236.716 134.751 237.13 134.428 237.455 134.012L238.705 135.223C238.354 135.73 237.813 136.186 237.084 136.59C236.361 136.993 235.486 137.195 234.457 137.195ZM234.174 128.133C233.842 128.133 233.533 128.195 233.246 128.318C232.966 128.436 232.715 128.605 232.494 128.826C232.273 129.054 232.087 129.327 231.938 129.646C231.788 129.965 231.677 130.327 231.605 130.73H236.576V130.574C236.576 130.268 236.521 129.965 236.41 129.666C236.299 129.36 236.143 129.093 235.941 128.865C235.746 128.644 235.499 128.468 235.199 128.338C234.906 128.201 234.564 128.133 234.174 128.133ZM258.48 137.195C257.699 137.195 256.983 137.065 256.332 136.805C255.688 136.544 255.134 136.183 254.672 135.721C254.21 135.265 253.852 134.728 253.598 134.109C253.35 133.484 253.227 132.811 253.227 132.088V131.688C253.227 130.861 253.357 130.112 253.617 129.441C253.878 128.771 254.236 128.198 254.691 127.723C255.147 127.247 255.674 126.883 256.273 126.629C256.879 126.368 257.523 126.238 258.207 126.238C258.969 126.238 259.643 126.368 260.229 126.629C260.814 126.883 261.306 127.238 261.703 127.693C262.1 128.156 262.4 128.706 262.602 129.344C262.803 129.982 262.904 130.678 262.904 131.434V132.439H255.58V132.488C255.652 132.951 255.762 133.338 255.912 133.65C256.062 133.963 256.267 134.243 256.527 134.49C256.788 134.751 257.094 134.952 257.445 135.096C257.803 135.239 258.194 135.311 258.617 135.311C259.197 135.311 259.737 135.2 260.238 134.979C260.74 134.751 261.153 134.428 261.479 134.012L262.729 135.223C262.377 135.73 261.837 136.186 261.107 136.59C260.385 136.993 259.509 137.195 258.48 137.195ZM258.197 128.133C257.865 128.133 257.556 128.195 257.27 128.318C256.99 128.436 256.739 128.605 256.518 128.826C256.296 129.054 256.111 129.327 255.961 129.646C255.811 129.965 255.701 130.327 255.629 130.73H260.6V130.574C260.6 130.268 260.544 129.965 260.434 129.666C260.323 129.36 260.167 129.093 259.965 128.865C259.77 128.644 259.522 128.468 259.223 128.338C258.93 128.201 258.588 128.133 258.197 128.133ZM270.248 123.855V126.434H274.223V128.182H270.248V133.23C270.248 133.621 270.294 133.95 270.385 134.217C270.482 134.477 270.616 134.682 270.785 134.832C270.954 134.988 271.156 135.099 271.391 135.164C271.625 135.229 271.882 135.262 272.162 135.262C272.364 135.262 272.572 135.252 272.787 135.232C273.002 135.213 273.21 135.187 273.412 135.154C273.607 135.128 273.79 135.099 273.959 135.066C274.135 135.027 274.281 134.995 274.398 134.969L274.652 136.58C274.483 136.684 274.278 136.775 274.037 136.854C273.803 136.925 273.549 136.987 273.275 137.039C273.002 137.091 272.715 137.13 272.416 137.156C272.123 137.189 271.83 137.205 271.537 137.205C271.003 137.205 270.512 137.133 270.062 136.99C269.62 136.84 269.239 136.609 268.92 136.297C268.601 135.991 268.35 135.597 268.168 135.115C267.992 134.633 267.904 134.054 267.904 133.377V128.182H265.346V126.434H267.904V123.855H270.248ZM299.613 124.725H295.229V137H292.895V124.725H288.539V122.781H299.613V124.725ZM306.527 137.195C305.746 137.195 305.03 137.065 304.379 136.805C303.734 136.544 303.181 136.183 302.719 135.721C302.257 135.265 301.898 134.728 301.645 134.109C301.397 133.484 301.273 132.811 301.273 132.088V131.688C301.273 130.861 301.404 130.112 301.664 129.441C301.924 128.771 302.283 128.198 302.738 127.723C303.194 127.247 303.721 126.883 304.32 126.629C304.926 126.368 305.57 126.238 306.254 126.238C307.016 126.238 307.689 126.368 308.275 126.629C308.861 126.883 309.353 127.238 309.75 127.693C310.147 128.156 310.447 128.706 310.648 129.344C310.85 129.982 310.951 130.678 310.951 131.434V132.439H303.627V132.488C303.699 132.951 303.809 133.338 303.959 133.65C304.109 133.963 304.314 134.243 304.574 134.49C304.835 134.751 305.141 134.952 305.492 135.096C305.85 135.239 306.241 135.311 306.664 135.311C307.243 135.311 307.784 135.2 308.285 134.979C308.786 134.751 309.2 134.428 309.525 134.012L310.775 135.223C310.424 135.73 309.883 136.186 309.154 136.59C308.432 136.993 307.556 137.195 306.527 137.195ZM306.244 128.133C305.912 128.133 305.603 128.195 305.316 128.318C305.036 128.436 304.786 128.605 304.564 128.826C304.343 129.054 304.158 129.327 304.008 129.646C303.858 129.965 303.747 130.327 303.676 130.73H308.646V130.574C308.646 130.268 308.591 129.965 308.48 129.666C308.37 129.36 308.214 129.093 308.012 128.865C307.816 128.644 307.569 128.468 307.27 128.338C306.977 128.201 306.635 128.133 306.244 128.133ZM306.82 122.332H309.477L306.811 124.998H305.014L306.82 122.332ZM313.178 131.619C313.178 130.851 313.288 130.141 313.51 129.49C313.731 128.833 314.053 128.263 314.477 127.781C314.893 127.299 315.404 126.922 316.01 126.648C316.615 126.375 317.305 126.238 318.08 126.238C318.855 126.238 319.545 126.375 320.15 126.648C320.762 126.922 321.28 127.299 321.703 127.781C322.12 128.263 322.439 128.833 322.66 129.49C322.882 130.141 322.992 130.851 322.992 131.619V131.824C322.992 132.599 322.882 133.312 322.66 133.963C322.439 134.614 322.12 135.18 321.703 135.662C321.286 136.144 320.772 136.521 320.16 136.795C319.555 137.068 318.868 137.205 318.1 137.205C317.325 137.205 316.632 137.068 316.02 136.795C315.408 136.521 314.893 136.144 314.477 135.662C314.053 135.18 313.731 134.614 313.51 133.963C313.288 133.312 313.178 132.599 313.178 131.824V131.619ZM315.512 131.824C315.512 132.299 315.561 132.749 315.658 133.172C315.762 133.595 315.922 133.966 316.137 134.285C316.345 134.604 316.612 134.858 316.938 135.047C317.263 135.229 317.65 135.32 318.1 135.32C318.536 135.32 318.917 135.229 319.242 135.047C319.568 134.858 319.835 134.604 320.043 134.285C320.251 133.966 320.404 133.595 320.502 133.172C320.606 132.749 320.658 132.299 320.658 131.824V131.619C320.658 131.157 320.606 130.714 320.502 130.291C320.398 129.868 320.245 129.497 320.043 129.178C319.828 128.859 319.558 128.605 319.232 128.416C318.913 128.227 318.529 128.133 318.08 128.133C317.637 128.133 317.253 128.227 316.928 128.416C316.609 128.605 316.345 128.859 316.137 129.178C315.922 129.497 315.762 129.868 315.658 130.291C315.561 130.714 315.512 131.157 315.512 131.619V131.824Z" fill="white"/>
</svg>
