<svg width="96" height="38" viewBox="0 0 96 38" fill="none" xmlns="http://www.w3.org/2000/svg">
<rect x="2.5" y="2.5" width="91" height="33" rx="4.5" stroke="white" stroke-width="5"/>
<rect x="4" y="4" width="88" height="30" rx="3" fill="#FFB38B"/>
<rect x="4" y="4" width="88" height="30" rx="3" stroke="black" stroke-width="2"/>
<path d="M18.3234 13.334L14.6223 26H12.5129L17.0637 11.7812H18.382L18.3234 13.334ZM21.302 26L17.591 13.334L17.5129 11.7812H18.8508L23.4113 26H21.302ZM21.3215 20.7266V22.4551H14.5637V20.7266H21.3215ZM25.6375 11.7812H29.7488C30.6798 11.7812 31.4643 11.944 32.1023 12.2695C32.7404 12.5951 33.2221 13.0768 33.5477 13.7148C33.8797 14.3464 34.0457 15.1276 34.0457 16.0586C34.0457 16.7357 33.9383 17.3444 33.7234 17.8848C33.5151 18.4186 33.2091 18.8711 32.8055 19.2422C32.4018 19.6133 31.9103 19.8932 31.3309 20.082L30.7547 20.3652H27.1805L27.1609 18.6367H29.7098C30.2241 18.6367 30.6505 18.526 30.9891 18.3047C31.3341 18.0833 31.5913 17.7806 31.7605 17.3965C31.9298 17.0124 32.0145 16.5827 32.0145 16.1074C32.0145 15.5866 31.9363 15.1309 31.7801 14.7402C31.6303 14.3496 31.3895 14.0469 31.0574 13.832C30.7319 13.6172 30.2957 13.5098 29.7488 13.5098H27.6785V26H25.6375V11.7812ZM32.3758 26L29.6023 19.5742H31.7215L34.5633 25.8828V26H32.3758ZM36.7602 11.7812H40.8715C41.8025 11.7812 42.587 11.944 43.225 12.2695C43.863 12.5951 44.3448 13.0768 44.6703 13.7148C45.0023 14.3464 45.1684 15.1276 45.1684 16.0586C45.1684 16.7357 45.0609 17.3444 44.8461 17.8848C44.6378 18.4186 44.3318 18.8711 43.9281 19.2422C43.5245 19.6133 43.0329 19.8932 42.4535 20.082L41.8773 20.3652H38.3031L38.2836 18.6367H40.8324C41.3467 18.6367 41.7732 18.526 42.1117 18.3047C42.4568 18.0833 42.7139 17.7806 42.8832 17.3965C43.0525 17.0124 43.1371 16.5827 43.1371 16.1074C43.1371 15.5866 43.059 15.1309 42.9027 14.7402C42.753 14.3496 42.5121 14.0469 42.1801 13.832C41.8546 13.6172 41.4184 13.5098 40.8715 13.5098H38.8012V26H36.7602V11.7812ZM43.4984 26L40.725 19.5742H42.8441L45.6859 25.8828V26H43.4984ZM50.002 11.7812V26H47.9609V11.7812H50.002ZM57.3941 23.6367L60.6461 11.7812H62.8629L58.5172 26H56.9742L57.3941 23.6367ZM54.5035 11.7812L57.7359 23.6367L58.1754 26H56.6422L52.2965 11.7812H54.5035ZM72.8234 24.2812V26H66.6516V24.2812H72.8234ZM67.1008 11.7812V26H65.0598V11.7812H67.1008ZM71.9934 17.8164V19.5254H66.6516V17.8164H71.9934ZM72.7453 11.7812V13.5098H66.6516V11.7812H72.7453ZM67.843 10.7754L69.7473 7.875H72.1301L69.4934 10.7754H67.843ZM83.1453 24.2812V26H76.9734V24.2812H83.1453ZM77.4227 11.7812V26H75.3816V11.7812H77.4227ZM82.3152 17.8164V19.5254H76.9734V17.8164H82.3152ZM83.0672 11.7812V13.5098H76.9734V11.7812H83.0672Z" fill="black"/>
</svg>
