<svg width="188" height="44" viewBox="0 0 188 44" fill="none" xmlns="http://www.w3.org/2000/svg">
<mask id="path-1-outside-1_16_145" maskUnits="userSpaceOnUse" x="0" y="0" width="189" height="44" fill="black">
<rect fill="white" width="189" height="44"/>
<path fill-rule="evenodd" clip-rule="evenodd" d="M19.2859 5.01237C19.2859 5.01563 19.2846 5.01876 19.2823 5.02108L5.57929 18.8511C4.86691 19.5701 4.80395 20.708 5.43268 21.5011L19.2824 38.9738C19.2847 38.9766 19.2859 38.9802 19.2859 38.9838V38.9838C19.2859 38.9928 19.2932 39 19.3021 39H19.3032H181.001C182.106 39 183.001 38.1046 183.001 37V7C183.001 5.89543 182.106 5 181.001 5H19.3032H19.2983C19.2915 5 19.2859 5.00554 19.2859 5.01237V5.01237Z"/>
</mask>
<path fill-rule="evenodd" clip-rule="evenodd" d="M19.2859 5.01237C19.2859 5.01563 19.2846 5.01876 19.2823 5.02108L5.57929 18.8511C4.86691 19.5701 4.80395 20.708 5.43268 21.5011L19.2824 38.9738C19.2847 38.9766 19.2859 38.9802 19.2859 38.9838V38.9838C19.2859 38.9928 19.2932 39 19.3021 39H19.3032H181.001C182.106 39 183.001 38.1046 183.001 37V7C183.001 5.89543 182.106 5 181.001 5H19.3032H19.2983C19.2915 5 19.2859 5.00554 19.2859 5.01237V5.01237Z" fill="white"/>
<path d="M19.2824 38.9738L15.3641 42.0796L19.2824 38.9738ZM19.2823 5.02108L15.7305 1.50189L19.2823 5.02108ZM5.57929 18.8511L2.02749 15.3319L5.57929 18.8511ZM9.1311 22.3703L22.8341 8.54027L15.7305 1.50189L2.02749 15.3319L9.1311 22.3703ZM23.2008 35.8679L9.35102 18.3952L1.51433 24.607L15.3641 42.0796L23.2008 35.8679ZM19.3032 34H19.3021V44H19.3032V34ZM181.001 34H19.3032V44H181.001V34ZM178.001 7V37H188.001V7H178.001ZM19.3032 10H181.001V0H19.3032V10ZM19.2983 10H19.3032V0H19.2983V10ZM19.2983 0C16.53 0 14.2859 2.24412 14.2859 5.01237H24.2859C24.2859 7.76696 22.0529 10 19.2983 10V0ZM188.001 7C188.001 3.134 184.867 0 181.001 0V10C179.344 10 178.001 8.65686 178.001 7H188.001ZM14.2859 38.9838C14.2859 41.7542 16.5317 44 19.3021 44V34C22.0546 34 24.2859 36.2313 24.2859 38.9838H14.2859ZM15.3641 42.0796C14.6659 41.1988 14.2859 40.1078 14.2859 38.9838H24.2859C24.2859 37.8525 23.9035 36.7544 23.2008 35.8679L15.3641 42.0796ZM22.8341 8.54027C23.7641 7.60165 24.2859 6.33376 24.2859 5.01237H14.2859C14.2859 3.69751 14.8051 2.43587 15.7305 1.50189L22.8341 8.54027ZM181.001 44C184.867 44 188.001 40.866 188.001 37H178.001C178.001 35.3431 179.344 34 181.001 34V44ZM2.02749 15.3319C-0.465859 17.8484 -0.686206 21.8309 1.51433 24.607L9.35102 18.3952C10.2941 19.585 10.1997 21.2918 9.1311 22.3703L2.02749 15.3319Z" fill="white" mask="url(#path-1-outside-1_16_145)"/>
<mask id="path-3-outside-2_16_145" maskUnits="userSpaceOnUse" x="3" y="3" width="183" height="38" fill="black">
<rect fill="white" x="3" y="3" width="183" height="38"/>
<path fill-rule="evenodd" clip-rule="evenodd" d="M19.2859 5.01237C19.2859 5.01563 19.2846 5.01876 19.2823 5.02108L5.57929 18.8511C4.86691 19.5701 4.80395 20.708 5.43268 21.5011L19.2824 38.9738C19.2847 38.9766 19.2859 38.9802 19.2859 38.9838V38.9838C19.2859 38.9928 19.2932 39 19.3021 39H19.3032H181.001C182.106 39 183.001 38.1046 183.001 37V7C183.001 5.89543 182.106 5 181.001 5H19.3032H19.2983C19.2915 5 19.2859 5.00554 19.2859 5.01237V5.01237Z"/>
</mask>
<path fill-rule="evenodd" clip-rule="evenodd" d="M19.2859 5.01237C19.2859 5.01563 19.2846 5.01876 19.2823 5.02108L5.57929 18.8511C4.86691 19.5701 4.80395 20.708 5.43268 21.5011L19.2824 38.9738C19.2847 38.9766 19.2859 38.9802 19.2859 38.9838V38.9838C19.2859 38.9928 19.2932 39 19.3021 39H19.3032H181.001C182.106 39 183.001 38.1046 183.001 37V7C183.001 5.89543 182.106 5 181.001 5H19.3032H19.2983C19.2915 5 19.2859 5.00554 19.2859 5.01237V5.01237Z" fill="white"/>
<path d="M19.2824 38.9738L17.7151 40.2161L19.2824 38.9738ZM19.2823 5.02108L17.8616 3.6134L19.2823 5.02108ZM5.57929 18.8511L4.15857 17.4434L5.57929 18.8511ZM7.00001 20.2588L20.7031 6.42876L17.8616 3.6134L4.15857 17.4434L7.00001 20.2588ZM20.8498 37.7314L7.00001 20.2588L3.86534 22.7435L17.7151 40.2161L20.8498 37.7314ZM19.3032 37H19.3021V41H19.3032V37ZM181.001 37H19.3032V41H181.001V37ZM181.001 7V37H185.001V7H181.001ZM19.3032 7H181.001V3H19.3032V7ZM19.2983 7H19.3032V3H19.2983V7ZM19.2983 3C18.1869 3 17.2859 3.90097 17.2859 5.01237H21.2859C21.2859 6.11011 20.396 7 19.2983 7V3ZM185.001 7C185.001 4.79086 183.21 3 181.001 3V7L181.001 7H185.001ZM17.2859 38.9838C17.2859 40.0973 18.1886 41 19.3021 41V37C20.3977 37 21.2859 37.8882 21.2859 38.9838H17.2859ZM17.7151 40.2161C17.4372 39.8655 17.2859 39.4312 17.2859 38.9838H21.2859C21.2859 38.5291 21.1322 38.0877 20.8498 37.7314L17.7151 40.2161ZM20.7031 6.42876C21.0764 6.05192 21.2859 5.54288 21.2859 5.01237H17.2859C17.2859 4.48838 17.4928 3.98561 17.8616 3.6134L20.7031 6.42876ZM181.001 41C183.21 41 185.001 39.2091 185.001 37H181.001L181.001 37V41ZM4.15857 17.4434C2.7338 18.8814 2.60789 21.1571 3.86534 22.7435L7.00001 20.2588L7.00001 20.2588L4.15857 17.4434Z" fill="black" mask="url(#path-3-outside-2_16_145)"/>
<path d="M31.4994 25.377C31.4994 25.0579 31.4636 24.778 31.392 24.5371C31.3269 24.2897 31.1999 24.0651 31.0111 23.8633C30.8288 23.6615 30.5684 23.4694 30.2299 23.2871C29.8978 23.0983 29.4747 22.9062 28.9603 22.7109C28.3874 22.5026 27.8601 22.2715 27.3783 22.0176C26.8965 21.7572 26.4799 21.4609 26.1283 21.1289C25.7833 20.7969 25.5131 20.4128 25.3178 19.9766C25.129 19.5404 25.0346 19.0391 25.0346 18.4727C25.0346 17.9128 25.1322 17.3984 25.3275 16.9297C25.5228 16.4544 25.8028 16.0443 26.1674 15.6992C26.5385 15.3477 26.9779 15.0742 27.4857 14.8789C28 14.6836 28.573 14.5859 29.2045 14.5859C30.1224 14.5859 30.9004 14.7878 31.5385 15.1914C32.183 15.5885 32.6713 16.1159 33.0033 16.7734C33.3418 17.4245 33.5111 18.1341 33.5111 18.9023H31.4799C31.4799 18.401 31.3985 17.9551 31.2357 17.5645C31.0795 17.1738 30.8321 16.8678 30.4935 16.6465C30.1615 16.4186 29.7286 16.3047 29.1947 16.3047C28.7064 16.3047 28.306 16.3991 27.9935 16.5879C27.681 16.7767 27.4499 17.0339 27.3002 17.3594C27.1504 17.6849 27.0756 18.0527 27.0756 18.4629C27.0756 18.7493 27.1277 19.0098 27.2318 19.2441C27.3425 19.472 27.502 19.6836 27.7103 19.8789C27.9252 20.0742 28.1921 20.2565 28.5111 20.4258C28.8301 20.5885 29.2012 20.748 29.6244 20.9043C30.308 21.1387 30.8972 21.3991 31.392 21.6855C31.8868 21.9655 32.2904 22.2845 32.6029 22.6426C32.9219 22.9941 33.1563 23.3945 33.306 23.8438C33.4623 24.2865 33.5404 24.791 33.5404 25.3574C33.5404 25.9368 33.4428 26.4642 33.2474 26.9395C33.0521 27.4082 32.7689 27.8118 32.3978 28.1504C32.0267 28.4824 31.5808 28.7396 31.0599 28.9219C30.5391 29.1042 29.9532 29.1953 29.3021 29.1953C28.7162 29.1953 28.1498 29.1042 27.6029 28.9219C27.056 28.7396 26.5612 28.4661 26.1185 28.1016C25.6823 27.7305 25.334 27.2715 25.0736 26.7246C24.8197 26.1712 24.6928 25.5299 24.6928 24.8008H26.724C26.724 25.2695 26.7891 25.6732 26.9193 26.0117C27.0495 26.3503 27.2318 26.6302 27.4662 26.8516C27.7071 27.0664 27.9838 27.2259 28.2963 27.3301C28.6088 27.4277 28.9473 27.4766 29.3119 27.4766C29.8002 27.4766 30.2071 27.3919 30.5326 27.2227C30.8581 27.0469 31.099 26.8027 31.2553 26.4902C31.418 26.1712 31.4994 25.8001 31.4994 25.377ZM43.9599 27.2812V29H37.7881V27.2812H43.9599ZM38.2373 14.7812V29H36.1963V14.7812H38.2373ZM43.1299 20.8164V22.5254H37.7881V20.8164H43.1299ZM43.8818 14.7812V16.5098H37.7881V14.7812H43.8818ZM55.9615 14.7812V29H53.94L48.5299 18.502V29H46.5181V14.7812H48.5299L53.9693 25.3184V14.7812H55.9615ZM65.4533 25.377C65.4533 25.0579 65.4175 24.778 65.3459 24.5371C65.2808 24.2897 65.1538 24.0651 64.965 23.8633C64.7827 23.6615 64.5223 23.4694 64.1838 23.2871C63.8517 23.0983 63.4286 22.9062 62.9142 22.7109C62.3413 22.5026 61.814 22.2715 61.3322 22.0176C60.8504 21.7572 60.4338 21.4609 60.0822 21.1289C59.7372 20.7969 59.467 20.4128 59.2717 19.9766C59.0829 19.5404 58.9885 19.0391 58.9885 18.4727C58.9885 17.9128 59.0861 17.3984 59.2814 16.9297C59.4767 16.4544 59.7567 16.0443 60.1213 15.6992C60.4924 15.3477 60.9318 15.0742 61.4396 14.8789C61.954 14.6836 62.5269 14.5859 63.1584 14.5859C64.0764 14.5859 64.8543 14.7878 65.4924 15.1914C66.1369 15.5885 66.6252 16.1159 66.9572 16.7734C67.2958 17.4245 67.465 18.1341 67.465 18.9023H65.4338C65.4338 18.401 65.3524 17.9551 65.1896 17.5645C65.0334 17.1738 64.786 16.8678 64.4474 16.6465C64.1154 16.4186 63.6825 16.3047 63.1486 16.3047C62.6603 16.3047 62.2599 16.3991 61.9474 16.5879C61.6349 16.7767 61.4038 17.0339 61.2541 17.3594C61.1043 17.6849 61.0295 18.0527 61.0295 18.4629C61.0295 18.7493 61.0816 19.0098 61.1857 19.2441C61.2964 19.472 61.4559 19.6836 61.6642 19.8789C61.8791 20.0742 62.146 20.2565 62.465 20.4258C62.784 20.5885 63.1551 20.748 63.5783 20.9043C64.2619 21.1387 64.8511 21.3991 65.3459 21.6855C65.8407 21.9655 66.2443 22.2845 66.5568 22.6426C66.8758 22.9941 67.1102 23.3945 67.2599 23.8438C67.4162 24.2865 67.4943 24.791 67.4943 25.3574C67.4943 25.9368 67.3967 26.4642 67.2014 26.9395C67.006 27.4082 66.7228 27.8118 66.3517 28.1504C65.9806 28.4824 65.5347 28.7396 65.0139 28.9219C64.493 29.1042 63.9071 29.1953 63.256 29.1953C62.6701 29.1953 62.1037 29.1042 61.5568 28.9219C61.0099 28.7396 60.5152 28.4661 60.0724 28.1016C59.6362 27.7305 59.2879 27.2715 59.0275 26.7246C58.7736 26.1712 58.6467 25.5299 58.6467 24.8008H60.6779C60.6779 25.2695 60.743 25.6732 60.8732 26.0117C61.0034 26.3503 61.1857 26.6302 61.4201 26.8516C61.661 27.0664 61.9377 27.2259 62.2502 27.3301C62.5627 27.4277 62.9012 27.4766 63.2658 27.4766C63.7541 27.4766 64.161 27.3919 64.4865 27.2227C64.812 27.0469 65.0529 26.8027 65.2092 26.4902C65.3719 26.1712 65.4533 25.8001 65.4533 25.377ZM78.4994 29H76.058L76.0775 27.2812H78.4994C79.3132 27.2812 79.9675 27.125 80.4623 26.8125C80.9636 26.5 81.3314 26.0345 81.5658 25.416C81.8002 24.791 81.9174 24.013 81.9174 23.082V20.6895C81.9174 19.9603 81.8523 19.332 81.7221 18.8047C81.5918 18.2773 81.3933 17.8477 81.1264 17.5156C80.8594 17.1771 80.5176 16.9264 80.101 16.7637C79.6908 16.5944 79.1993 16.5098 78.6264 16.5098H76.0092V14.7812H78.6264C79.4336 14.7812 80.1628 14.9082 80.8139 15.1621C81.4649 15.416 82.0215 15.7936 82.4838 16.2949C82.9525 16.7962 83.3106 17.418 83.558 18.1602C83.8119 18.8958 83.9389 19.7454 83.9389 20.709V23.082C83.9389 24.0456 83.8119 24.8984 83.558 25.6406C83.3106 26.3763 82.9525 26.9948 82.4838 27.4961C82.015 27.9909 81.4454 28.3652 80.7748 28.6191C80.1042 28.873 79.3458 29 78.4994 29ZM77.2006 14.7812V29H75.1596V14.7812H77.2006ZM94.7099 27.2812V29H88.5381V27.2812H94.7099ZM88.9873 14.7812V29H86.9463V14.7812H88.9873ZM93.8799 20.8164V22.5254H88.5381V20.8164H93.8799ZM94.6318 14.7812V16.5098H88.5381V14.7812H94.6318ZM102.951 14.7812H104.865L108.401 25.9434L111.916 14.7812H113.772L109.162 29H107.619L102.951 14.7812ZM102.278 14.7812H103.996L104.289 23.6094V29H102.278V14.7812ZM112.776 14.7812H114.494V29H112.483V23.6094L112.776 14.7812ZM122.707 16.334L119.006 29H116.896L121.447 14.7812H122.765L122.707 16.334ZM125.685 29L121.974 16.334L121.896 14.7812H123.234L127.795 29H125.685ZM125.705 23.7266V25.4551H118.947V23.7266H125.705ZM130.021 14.7812H134.132C135.063 14.7812 135.848 14.944 136.486 15.2695C137.124 15.5951 137.606 16.0768 137.931 16.7148C138.263 17.3464 138.429 18.1276 138.429 19.0586C138.429 19.7357 138.322 20.3444 138.107 20.8848C137.898 21.4186 137.592 21.8711 137.189 22.2422C136.785 22.6133 136.294 22.8932 135.714 23.082L135.138 23.3652H131.564L131.544 21.6367H134.093C134.607 21.6367 135.034 21.526 135.372 21.3047C135.717 21.0833 135.975 20.7806 136.144 20.3965C136.313 20.0124 136.398 19.5827 136.398 19.1074C136.398 18.5866 136.32 18.1309 136.163 17.7402C136.014 17.3496 135.773 17.0469 135.441 16.832C135.115 16.6172 134.679 16.5098 134.132 16.5098H132.062V29H130.021V14.7812ZM136.759 29L133.986 22.5742H136.105L138.947 28.8828V29H136.759ZM148.175 24.4297H150.216C150.17 25.4258 149.968 26.2819 149.61 26.998C149.252 27.7077 148.735 28.2513 148.058 28.6289C147.387 29.0065 146.554 29.1953 145.558 29.1953C144.828 29.1953 144.171 29.0586 143.585 28.7852C143.006 28.5052 142.511 28.1048 142.101 27.584C141.69 27.0632 141.378 26.4316 141.163 25.6895C140.948 24.9473 140.841 24.1107 140.841 23.1797V20.6016C140.841 19.6706 140.948 18.834 141.163 18.0918C141.384 17.3496 141.703 16.7181 142.12 16.1973C142.543 15.6764 143.054 15.2793 143.653 15.0059C144.252 14.7259 144.933 14.5859 145.694 14.5859C146.645 14.5859 147.446 14.7715 148.097 15.1426C148.754 15.5137 149.259 16.0573 149.61 16.7734C149.968 17.4896 150.17 18.3652 150.216 19.4004H148.175C148.136 18.6647 148.028 18.0723 147.853 17.623C147.677 17.1673 147.413 16.8353 147.062 16.627C146.716 16.4186 146.261 16.3145 145.694 16.3145C145.206 16.3145 144.783 16.4121 144.425 16.6074C144.067 16.7962 143.774 17.0729 143.546 17.4375C143.318 17.8021 143.149 18.248 143.038 18.7754C142.927 19.3027 142.872 19.9049 142.872 20.582V23.1797C142.872 23.8112 142.918 24.3906 143.009 24.918C143.106 25.4453 143.259 25.901 143.468 26.2852C143.676 26.6628 143.95 26.9557 144.288 27.1641C144.633 27.3724 145.056 27.4766 145.558 27.4766C146.176 27.4766 146.664 27.3789 147.022 27.1836C147.387 26.9818 147.657 26.6595 147.833 26.2168C148.009 25.7676 148.123 25.1719 148.175 24.4297ZM160.635 20.8164V22.5352H154.551V20.8164H160.635ZM154.922 14.7812V29H152.881V14.7812H154.922ZM162.335 14.7812V29H160.303V14.7812H162.335ZM173.428 27.2812V29H167.256V27.2812H173.428ZM167.705 14.7812V29H165.664V14.7812H167.705ZM172.598 20.8164V22.5254H167.256V20.8164H172.598ZM173.35 14.7812V16.5098H167.256V14.7812H173.35Z" fill="black"/>
</svg>
