<svg width="90" height="38" viewBox="0 0 90 38" fill="none" xmlns="http://www.w3.org/2000/svg">
<rect x="2.5" y="2.5" width="85" height="33" rx="4.5" stroke="white" stroke-width="5"/>
<rect x="4" y="4" width="82" height="30" rx="3" fill="#FFB38B"/>
<rect x="4" y="4" width="82" height="30" rx="3" stroke="black" stroke-width="2"/>
<path d="M17.1934 26H14.752L14.7715 24.2812H17.1934C18.0072 24.2812 18.6615 24.125 19.1562 23.8125C19.6576 23.5 20.0254 23.0345 20.2598 22.416C20.4941 21.791 20.6113 21.013 20.6113 20.082V17.6895C20.6113 16.9603 20.5462 16.332 20.416 15.8047C20.2858 15.2773 20.0872 14.8477 19.8203 14.5156C19.5534 14.1771 19.2116 13.9264 18.7949 13.7637C18.3848 13.5944 17.8932 13.5098 17.3203 13.5098H14.7031V11.7812H17.3203C18.1276 11.7812 18.8568 11.9082 19.5078 12.1621C20.1589 12.416 20.7155 12.7936 21.1777 13.2949C21.6465 13.7962 22.0046 14.418 22.252 15.1602C22.5059 15.8958 22.6328 16.7454 22.6328 17.709V20.082C22.6328 21.0456 22.5059 21.8984 22.252 22.6406C22.0046 23.3763 21.6465 23.9948 21.1777 24.4961C20.709 24.9909 20.1393 25.3652 19.4688 25.6191C18.7982 25.873 18.0397 26 17.1934 26ZM15.8945 11.7812V26H13.8535V11.7812H15.8945ZM33.4039 24.2812V26H27.232V24.2812H33.4039ZM27.6812 11.7812V26H25.6402V11.7812H27.6812ZM32.5738 17.8164V19.5254H27.232V17.8164H32.5738ZM33.3258 11.7812V13.5098H27.232V11.7812H33.3258ZM28.4234 10.7754L30.3277 7.875H32.7105L30.0738 10.7754H28.4234ZM40.5715 20.5508H37.5051V18.832H40.5715C41.1118 18.832 41.5513 18.7214 41.8898 18.5C42.2284 18.2721 42.4725 17.9629 42.6223 17.5723C42.7785 17.1751 42.8566 16.7227 42.8566 16.2148C42.8566 15.7461 42.7785 15.3066 42.6223 14.8965C42.4725 14.4798 42.2284 14.1445 41.8898 13.8906C41.5513 13.6367 41.1118 13.5098 40.5715 13.5098H38.0031V26H35.9621V11.7812H40.5715C41.496 11.7812 42.2805 11.9701 42.925 12.3477C43.5695 12.7253 44.0611 13.2493 44.3996 13.9199C44.7382 14.584 44.9074 15.3424 44.9074 16.1953C44.9074 17.1133 44.7382 17.8978 44.3996 18.5488C44.0611 19.1999 43.5695 19.6979 42.925 20.043C42.2805 20.3815 41.496 20.5508 40.5715 20.5508ZM50.825 13.334L47.1238 26H45.0145L49.5652 11.7812H50.8836L50.825 13.334ZM53.8035 26L50.0926 13.334L50.0145 11.7812H51.3523L55.9129 26H53.8035ZM53.823 20.7266V22.4551H47.0652V20.7266H53.823ZM58.1391 11.7812H62.2504C63.1814 11.7812 63.9659 11.944 64.6039 12.2695C65.2419 12.5951 65.7237 13.0768 66.0492 13.7148C66.3812 14.3464 66.5473 15.1276 66.5473 16.0586C66.5473 16.7357 66.4398 17.3444 66.225 17.8848C66.0167 18.4186 65.7107 18.8711 65.307 19.2422C64.9034 19.6133 64.4118 19.8932 63.8324 20.082L63.2562 20.3652H59.682L59.6625 18.6367H62.2113C62.7256 18.6367 63.1521 18.526 63.4906 18.3047C63.8357 18.0833 64.0928 17.7806 64.2621 17.3965C64.4314 17.0124 64.516 16.5827 64.516 16.1074C64.516 15.5866 64.4379 15.1309 64.2816 14.7402C64.1319 14.3496 63.891 14.0469 63.559 13.832C63.2335 13.6172 62.7973 13.5098 62.2504 13.5098H60.1801V26H58.1391V11.7812ZM64.8773 26L62.1039 19.5742H64.223L67.0648 25.8828V26H64.8773ZM73.3535 11.7812V26H71.332V11.7812H73.3535ZM77.0449 11.7812V13.5098H67.6602V11.7812H77.0449Z" fill="black"/>
</svg>
