<svg width="426" height="153" viewBox="0 0 426 153" fill="none" xmlns="http://www.w3.org/2000/svg">
<rect x="1" y="1" width="424" height="151" rx="3" fill="white"/>
<rect x="1" y="1" width="424" height="151" rx="3" stroke="black" stroke-width="2"/>
<path d="M39.7773 47.4219V50H27.7266V47.4219H39.7773ZM28.3711 21.5625V50H25.4414V21.5625H28.3711ZM53.2344 23.6719L45.2461 50H42.2578L51.3594 21.5625H53.3125L53.2344 23.6719ZM60.0508 50L52.0625 23.6719L52.0039 21.5625H53.9375L63.0586 50H60.0508ZM59.4258 39.707V42.3047H46.1445V39.707H59.4258ZM93.7812 36.1523V46.5625C93.4818 46.9661 93.0065 47.474 92.3555 48.0859C91.7174 48.6849 90.832 49.2253 89.6992 49.707C88.5664 50.1758 87.1211 50.4102 85.3633 50.4102C83.918 50.4102 82.6029 50.1628 81.418 49.668C80.2331 49.1732 79.2044 48.4375 78.332 47.4609C77.4727 46.4714 76.8086 45.2474 76.3398 43.7891C75.8841 42.3307 75.6562 40.6315 75.6562 38.6914V32.7539C75.6562 30.8398 75.8581 29.1602 76.2617 27.7148C76.6654 26.2565 77.2643 25.0456 78.0586 24.082C78.8529 23.1185 79.8294 22.3958 80.9883 21.9141C82.1602 21.4193 83.5013 21.1719 85.0117 21.1719C86.8216 21.1719 88.3581 21.5104 89.6211 22.1875C90.8841 22.8516 91.8672 23.8216 92.5703 25.0977C93.2734 26.3737 93.6771 27.9167 93.7812 29.7266H90.8516C90.7474 28.4896 90.474 27.4284 90.0312 26.543C89.5885 25.6445 88.957 24.9544 88.1367 24.4727C87.3294 23.9909 86.2878 23.75 85.0117 23.75C83.8919 23.75 82.9219 23.9388 82.1016 24.3164C81.2943 24.694 80.6302 25.2604 80.1094 26.0156C79.5885 26.7708 79.1979 27.7083 78.9375 28.8281C78.6901 29.9349 78.5664 31.2305 78.5664 32.7148V38.6914C78.5664 40.2148 78.7227 41.5495 79.0352 42.6953C79.3477 43.8281 79.8034 44.7786 80.4023 45.5469C81.0013 46.3021 81.7174 46.875 82.5508 47.2656C83.3841 47.6432 84.3216 47.832 85.3633 47.832C86.5221 47.832 87.4661 47.6953 88.1953 47.4219C88.9245 47.1484 89.4974 46.8424 89.9141 46.5039C90.3438 46.1654 90.6628 45.8919 90.8711 45.6836V38.7109H85.1484V36.1523H93.7812ZM99.9141 21.5625H107.805C109.562 21.5625 111.06 21.888 112.297 22.5391C113.534 23.1901 114.478 24.1471 115.129 25.4102C115.78 26.6602 116.105 28.1966 116.105 30.0195C116.105 31.3346 115.878 32.5391 115.422 33.6328C114.979 34.7135 114.341 35.625 113.508 36.3672C112.688 37.0964 111.711 37.6237 110.578 37.9492L109.719 38.3203H102.102L102.062 35.7422H107.961C109.133 35.7422 110.103 35.4818 110.871 34.9609C111.652 34.4271 112.232 33.724 112.609 32.8516C113 31.9792 113.195 31.0352 113.195 30.0195C113.195 28.8346 113 27.7995 112.609 26.9141C112.232 26.0286 111.639 25.3451 110.832 24.8633C110.038 24.3815 109.029 24.1406 107.805 24.1406H102.844V50H99.9141V21.5625ZM114.035 50L108.156 37.1875L111.203 37.168L117.16 49.7461V50H114.035ZM130.148 23.6719L122.16 50H119.172L128.273 21.5625H130.227L130.148 23.6719ZM136.965 50L128.977 23.6719L128.918 21.5625H130.852L139.973 50H136.965ZM136.34 39.707V42.3047H123.059V39.707H136.34ZM162.277 21.5625V50H159.348L146.965 26.9141V50H144.035V21.5625H146.965L159.387 44.6875V21.5625H162.277ZM175.246 50H170.148L170.188 47.4219H175.246C176.952 47.4219 178.371 47.0833 179.504 46.4062C180.637 45.7161 181.49 44.7005 182.062 43.3594C182.635 42.0182 182.922 40.3711 182.922 38.418V33.1055C182.922 31.5951 182.759 30.2799 182.434 29.1602C182.108 28.0273 181.633 27.0964 181.008 26.3672C180.383 25.625 179.608 25.0716 178.684 24.707C177.759 24.3294 176.691 24.1406 175.48 24.1406H170.051V21.5625H175.48C177.043 21.5625 178.456 21.8099 179.719 22.3047C180.982 22.7995 182.062 23.5417 182.961 24.5312C183.872 25.5078 184.569 26.7188 185.051 28.1641C185.546 29.5964 185.793 31.2565 185.793 33.1445V38.418C185.793 40.306 185.546 41.9727 185.051 43.418C184.569 44.8633 183.866 46.0742 182.941 47.0508C182.03 48.0273 180.923 48.763 179.621 49.2578C178.332 49.7526 176.874 50 175.246 50ZM171.672 21.5625V50H168.762V21.5625H171.672ZM206.672 47.4219V50H193.859V47.4219H206.672ZM194.484 21.5625V50H191.574V21.5625H194.484ZM205.012 34.043V36.6211H193.859V34.043H205.012ZM206.535 21.5625V24.1406H193.859V21.5625H206.535ZM228.43 21.5625V50H225.539V21.5625H228.43ZM236.203 21.5625V24.1406H217.766V21.5625H236.203ZM240.617 21.5625H248.508C250.266 21.5625 251.763 21.888 253 22.5391C254.237 23.1901 255.181 24.1471 255.832 25.4102C256.483 26.6602 256.809 28.1966 256.809 30.0195C256.809 31.3346 256.581 32.5391 256.125 33.6328C255.682 34.7135 255.044 35.625 254.211 36.3672C253.391 37.0964 252.414 37.6237 251.281 37.9492L250.422 38.3203H242.805L242.766 35.7422H248.664C249.836 35.7422 250.806 35.4818 251.574 34.9609C252.355 34.4271 252.935 33.724 253.312 32.8516C253.703 31.9792 253.898 31.0352 253.898 30.0195C253.898 28.8346 253.703 27.7995 253.312 26.9141C252.935 26.0286 252.342 25.3451 251.535 24.8633C250.741 24.3815 249.732 24.1406 248.508 24.1406H243.547V50H240.617V21.5625ZM254.738 50L248.859 37.1875L251.906 37.168L257.863 49.7461V50H254.738ZM270.852 23.6719L262.863 50H259.875L268.977 21.5625H270.93L270.852 23.6719ZM277.668 50L269.68 23.6719L269.621 21.5625H271.555L280.676 50H277.668ZM277.043 39.707V42.3047H263.762V39.707H277.043ZM290.695 46.0742L297.805 21.5625H300.988L292.121 50H289.855L290.695 46.0742ZM283.84 21.5625L290.93 46.0742L291.789 50H289.523L280.676 21.5625H283.84ZM320.148 47.4219V50H307.336V47.4219H320.148ZM307.961 21.5625V50H305.051V21.5625H307.961ZM318.488 34.043V36.6211H307.336V34.043H318.488ZM320.012 21.5625V24.1406H307.336V21.5625H320.012ZM324.914 21.5625H332.805C334.562 21.5625 336.06 21.888 337.297 22.5391C338.534 23.1901 339.478 24.1471 340.129 25.4102C340.78 26.6602 341.105 28.1966 341.105 30.0195C341.105 31.3346 340.878 32.5391 340.422 33.6328C339.979 34.7135 339.341 35.625 338.508 36.3672C337.688 37.0964 336.711 37.6237 335.578 37.9492L334.719 38.3203H327.102L327.062 35.7422H332.961C334.133 35.7422 335.103 35.4818 335.871 34.9609C336.652 34.4271 337.232 33.724 337.609 32.8516C338 31.9792 338.195 31.0352 338.195 30.0195C338.195 28.8346 338 27.7995 337.609 26.9141C337.232 26.0286 336.639 25.3451 335.832 24.8633C335.038 24.3815 334.029 24.1406 332.805 24.1406H327.844V50H324.914V21.5625ZM339.035 50L333.156 37.1875L336.203 37.168L342.16 49.7461V50H339.035ZM359.445 42.8906C359.445 42.1745 359.354 41.5365 359.172 40.9766C358.99 40.4167 358.677 39.9154 358.234 39.4727C357.805 39.0169 357.206 38.5872 356.438 38.1836C355.682 37.7799 354.725 37.3763 353.566 36.9727C352.382 36.569 351.314 36.1198 350.363 35.625C349.413 35.1302 348.599 34.5638 347.922 33.9258C347.245 33.2747 346.724 32.526 346.359 31.6797C345.995 30.8203 345.812 29.8307 345.812 28.7109C345.812 27.6172 346.001 26.6146 346.379 25.7031C346.77 24.7786 347.323 23.9779 348.039 23.3008C348.755 22.6237 349.608 22.1029 350.598 21.7383C351.6 21.3607 352.701 21.1719 353.898 21.1719C355.669 21.1719 357.18 21.569 358.43 22.3633C359.68 23.1445 360.63 24.1862 361.281 25.4883C361.945 26.7773 362.277 28.1836 362.277 29.707H359.387C359.387 28.5612 359.178 27.5456 358.762 26.6602C358.358 25.7617 357.753 25.0521 356.945 24.5312C356.138 24.0104 355.122 23.75 353.898 23.75C352.753 23.75 351.796 23.9714 351.027 24.4141C350.259 24.8568 349.686 25.4492 349.309 26.1914C348.931 26.9206 348.742 27.7474 348.742 28.6719C348.742 29.3099 348.846 29.8958 349.055 30.4297C349.263 30.9505 349.595 31.4388 350.051 31.8945C350.52 32.3503 351.118 32.7734 351.848 33.1641C352.59 33.5417 353.469 33.9062 354.484 34.2578C355.826 34.6875 356.991 35.1693 357.98 35.7031C358.97 36.237 359.784 36.849 360.422 37.5391C361.073 38.2161 361.555 38.9909 361.867 39.8633C362.193 40.7357 362.355 41.7318 362.355 42.8516C362.355 44.0234 362.16 45.0716 361.77 45.9961C361.379 46.9206 360.812 47.7148 360.07 48.3789C359.341 49.0299 358.469 49.5312 357.453 49.8828C356.438 50.2214 355.311 50.3906 354.074 50.3906C352.967 50.3906 351.88 50.2214 350.812 49.8828C349.758 49.5312 348.794 49.0039 347.922 48.3008C347.049 47.5846 346.353 46.6927 345.832 45.625C345.311 44.5443 345.051 43.2747 345.051 41.8164H347.961C347.961 42.8971 348.13 43.8216 348.469 44.5898C348.82 45.3451 349.283 45.9635 349.855 46.4453C350.428 46.9141 351.073 47.2591 351.789 47.4805C352.518 47.7018 353.28 47.8125 354.074 47.8125C355.194 47.8125 356.151 47.6107 356.945 47.207C357.753 46.8034 358.371 46.237 358.801 45.5078C359.23 44.7656 359.445 43.8932 359.445 42.8906ZM382.336 47.4219V50H369.523V47.4219H382.336ZM370.148 21.5625V50H367.238V21.5625H370.148ZM380.676 34.043V36.6211H369.523V34.043H380.676ZM382.199 21.5625V24.1406H369.523V21.5625H382.199ZM372.883 19.3359L376.633 13.7305H380.227L375.344 19.3359H372.883ZM402.219 47.4219V50H389.406V47.4219H402.219ZM390.031 21.5625V50H387.121V21.5625H390.031ZM400.559 34.043V36.6211H389.406V34.043H400.559ZM402.082 21.5625V24.1406H389.406V21.5625H402.082ZM101.691 97H96.5938L96.6328 94.4219H101.691C103.397 94.4219 104.816 94.0833 105.949 93.4062C107.082 92.7161 107.935 91.7005 108.508 90.3594C109.081 89.0182 109.367 87.3711 109.367 85.418V80.1055C109.367 78.5951 109.204 77.2799 108.879 76.1602C108.553 75.0273 108.078 74.0964 107.453 73.3672C106.828 72.625 106.053 72.0716 105.129 71.707C104.204 71.3294 103.137 71.1406 101.926 71.1406H96.4961V68.5625H101.926C103.488 68.5625 104.901 68.8099 106.164 69.3047C107.427 69.7995 108.508 70.5417 109.406 71.5312C110.318 72.5078 111.014 73.7188 111.496 75.1641C111.991 76.5964 112.238 78.2565 112.238 80.1445V85.418C112.238 87.306 111.991 88.9727 111.496 90.418C111.014 91.8633 110.311 93.0742 109.387 94.0508C108.475 95.0273 107.368 95.763 106.066 96.2578C104.777 96.7526 103.319 97 101.691 97ZM98.1172 68.5625V97H95.207V68.5625H98.1172ZM133.117 94.4219V97H120.305V94.4219H133.117ZM120.93 68.5625V97H118.02V68.5625H120.93ZM131.457 81.043V83.6211H120.305V81.043H131.457ZM132.98 68.5625V71.1406H120.305V68.5625H132.98ZM150.812 89.8906C150.812 89.1745 150.721 88.5365 150.539 87.9766C150.357 87.4167 150.044 86.9154 149.602 86.4727C149.172 86.0169 148.573 85.5872 147.805 85.1836C147.049 84.7799 146.092 84.3763 144.934 83.9727C143.749 83.569 142.681 83.1198 141.73 82.625C140.78 82.1302 139.966 81.5638 139.289 80.9258C138.612 80.2747 138.091 79.526 137.727 78.6797C137.362 77.8203 137.18 76.8307 137.18 75.7109C137.18 74.6172 137.368 73.6146 137.746 72.7031C138.137 71.7786 138.69 70.9779 139.406 70.3008C140.122 69.6237 140.975 69.1029 141.965 68.7383C142.967 68.3607 144.068 68.1719 145.266 68.1719C147.036 68.1719 148.547 68.569 149.797 69.3633C151.047 70.1445 151.997 71.1862 152.648 72.4883C153.312 73.7773 153.645 75.1836 153.645 76.707H150.754C150.754 75.5612 150.546 74.5456 150.129 73.6602C149.725 72.7617 149.12 72.0521 148.312 71.5312C147.505 71.0104 146.49 70.75 145.266 70.75C144.12 70.75 143.163 70.9714 142.395 71.4141C141.626 71.8568 141.053 72.4492 140.676 73.1914C140.298 73.9206 140.109 74.7474 140.109 75.6719C140.109 76.3099 140.214 76.8958 140.422 77.4297C140.63 77.9505 140.962 78.4388 141.418 78.8945C141.887 79.3503 142.486 79.7734 143.215 80.1641C143.957 80.5417 144.836 80.9062 145.852 81.2578C147.193 81.6875 148.358 82.1693 149.348 82.7031C150.337 83.237 151.151 83.849 151.789 84.5391C152.44 85.2161 152.922 85.9909 153.234 86.8633C153.56 87.7357 153.723 88.7318 153.723 89.8516C153.723 91.0234 153.527 92.0716 153.137 92.9961C152.746 93.9206 152.18 94.7148 151.438 95.3789C150.708 96.0299 149.836 96.5312 148.82 96.8828C147.805 97.2214 146.678 97.3906 145.441 97.3906C144.335 97.3906 143.247 97.2214 142.18 96.8828C141.125 96.5312 140.161 96.0039 139.289 95.3008C138.417 94.5846 137.72 93.6927 137.199 92.625C136.678 91.5443 136.418 90.2747 136.418 88.8164H139.328C139.328 89.8971 139.497 90.8216 139.836 91.5898C140.188 92.3451 140.65 92.9635 141.223 93.4453C141.796 93.9141 142.44 94.2591 143.156 94.4805C143.885 94.7018 144.647 94.8125 145.441 94.8125C146.561 94.8125 147.518 94.6107 148.312 94.207C149.12 93.8034 149.738 93.237 150.168 92.5078C150.598 91.7656 150.812 90.8932 150.812 89.8906ZM176.359 85.6328H169.895V83.0547H176.359C177.648 83.0547 178.69 82.8008 179.484 82.293C180.279 81.7852 180.858 81.0885 181.223 80.2031C181.587 79.3047 181.77 78.3021 181.77 77.1953C181.77 76.1146 181.587 75.1185 181.223 74.207C180.858 73.2956 180.279 72.5599 179.484 72C178.69 71.4271 177.648 71.1406 176.359 71.1406H170.617V97H167.707V68.5625H176.359C178.156 68.5625 179.673 68.9271 180.91 69.6562C182.147 70.3854 183.085 71.401 183.723 72.7031C184.361 73.9922 184.68 75.4766 184.68 77.1562C184.68 78.9401 184.361 80.4701 183.723 81.7461C183.085 83.0091 182.147 83.9727 180.91 84.6367C179.686 85.3008 178.169 85.6328 176.359 85.6328ZM190.383 68.5625L196.809 83.4258L203.273 68.5625H206.574L198.254 86.3359V97H195.344V86.3359L187.043 68.5625H190.383ZM210.539 68.5625H218.43C220.188 68.5625 221.685 68.888 222.922 69.5391C224.159 70.1901 225.103 71.1471 225.754 72.4102C226.405 73.6602 226.73 75.1966 226.73 77.0195C226.73 78.3346 226.503 79.5391 226.047 80.6328C225.604 81.7135 224.966 82.625 224.133 83.3672C223.312 84.0964 222.336 84.6237 221.203 84.9492L220.344 85.3203H212.727L212.688 82.7422H218.586C219.758 82.7422 220.728 82.4818 221.496 81.9609C222.277 81.4271 222.857 80.724 223.234 79.8516C223.625 78.9792 223.82 78.0352 223.82 77.0195C223.82 75.8346 223.625 74.7995 223.234 73.9141C222.857 73.0286 222.264 72.3451 221.457 71.8633C220.663 71.3815 219.654 71.1406 218.43 71.1406H213.469V97H210.539V68.5625ZM224.66 97L218.781 84.1875L221.828 84.168L227.785 96.7461V97H224.66ZM247.258 94.4219V97H234.445V94.4219H247.258ZM235.07 68.5625V97H232.16V68.5625H235.07ZM245.598 81.043V83.6211H234.445V81.043H245.598ZM247.121 68.5625V71.1406H234.445V68.5625H247.121ZM237.805 66.3359L241.555 60.7305H245.148L240.266 66.3359H237.805ZM270.285 68.5625V97H267.355L254.973 73.9141V97H252.043V68.5625H254.973L267.395 91.6875V68.5625H270.285ZM291.867 94.4219V97H279.055V94.4219H291.867ZM279.68 68.5625V97H276.77V68.5625H279.68ZM290.207 81.043V83.6211H279.055V81.043H290.207ZM291.73 68.5625V71.1406H279.055V68.5625H291.73ZM282.414 66.3359L286.164 60.7305H289.758L284.875 66.3359H282.414ZM311.75 94.4219V97H298.938V94.4219H311.75ZM299.562 68.5625V97H296.652V68.5625H299.562ZM310.09 81.043V83.6211H298.938V81.043H310.09ZM311.613 68.5625V71.1406H298.938V68.5625H311.613ZM329.445 89.8906C329.445 89.1745 329.354 88.5365 329.172 87.9766C328.99 87.4167 328.677 86.9154 328.234 86.4727C327.805 86.0169 327.206 85.5872 326.438 85.1836C325.682 84.7799 324.725 84.3763 323.566 83.9727C322.382 83.569 321.314 83.1198 320.363 82.625C319.413 82.1302 318.599 81.5638 317.922 80.9258C317.245 80.2747 316.724 79.526 316.359 78.6797C315.995 77.8203 315.812 76.8307 315.812 75.7109C315.812 74.6172 316.001 73.6146 316.379 72.7031C316.77 71.7786 317.323 70.9779 318.039 70.3008C318.755 69.6237 319.608 69.1029 320.598 68.7383C321.6 68.3607 322.701 68.1719 323.898 68.1719C325.669 68.1719 327.18 68.569 328.43 69.3633C329.68 70.1445 330.63 71.1862 331.281 72.4883C331.945 73.7773 332.277 75.1836 332.277 76.707H329.387C329.387 75.5612 329.178 74.5456 328.762 73.6602C328.358 72.7617 327.753 72.0521 326.945 71.5312C326.138 71.0104 325.122 70.75 323.898 70.75C322.753 70.75 321.796 70.9714 321.027 71.4141C320.259 71.8568 319.686 72.4492 319.309 73.1914C318.931 73.9206 318.742 74.7474 318.742 75.6719C318.742 76.3099 318.846 76.8958 319.055 77.4297C319.263 77.9505 319.595 78.4388 320.051 78.8945C320.52 79.3503 321.118 79.7734 321.848 80.1641C322.59 80.5417 323.469 80.9062 324.484 81.2578C325.826 81.6875 326.991 82.1693 327.98 82.7031C328.97 83.237 329.784 83.849 330.422 84.5391C331.073 85.2161 331.555 85.9909 331.867 86.8633C332.193 87.7357 332.355 88.7318 332.355 89.8516C332.355 91.0234 332.16 92.0716 331.77 92.9961C331.379 93.9206 330.812 94.7148 330.07 95.3789C329.341 96.0299 328.469 96.5312 327.453 96.8828C326.438 97.2214 325.311 97.3906 324.074 97.3906C322.967 97.3906 321.88 97.2214 320.812 96.8828C319.758 96.5312 318.794 96.0039 317.922 95.3008C317.049 94.5846 316.353 93.6927 315.832 92.625C315.311 91.5443 315.051 90.2747 315.051 88.8164H317.961C317.961 89.8971 318.13 90.8216 318.469 91.5898C318.82 92.3451 319.283 92.9635 319.855 93.4453C320.428 93.9141 321.073 94.2591 321.789 94.4805C322.518 94.7018 323.28 94.8125 324.074 94.8125C325.194 94.8125 326.151 94.6107 326.945 94.207C327.753 93.8034 328.371 93.237 328.801 92.5078C329.23 91.7656 329.445 90.8932 329.445 89.8906Z" fill="black"/>
<path d="M112.258 125.629C112.258 124.841 112.355 124.118 112.551 123.461C112.753 122.797 113.039 122.227 113.41 121.752C113.775 121.277 114.217 120.906 114.738 120.639C115.259 120.372 115.842 120.238 116.486 120.238C117.118 120.238 117.668 120.346 118.137 120.561C118.612 120.769 119.022 121.075 119.367 121.479V116H121.174V131H119.514L119.436 129.887C119.084 130.316 118.664 130.642 118.176 130.863C117.688 131.085 117.118 131.195 116.467 131.195C115.829 131.195 115.249 131.059 114.729 130.785C114.214 130.512 113.775 130.134 113.41 129.652C113.046 129.171 112.762 128.604 112.561 127.953C112.359 127.296 112.258 126.589 112.258 125.834V125.629ZM114.064 125.834C114.064 126.348 114.12 126.837 114.23 127.299C114.341 127.761 114.514 128.168 114.748 128.52C114.976 128.871 115.269 129.151 115.627 129.359C115.985 129.561 116.415 129.662 116.916 129.662C117.521 129.662 118.023 129.525 118.42 129.252C118.817 128.979 119.133 128.611 119.367 128.148V123.246C119.133 122.816 118.817 122.465 118.42 122.191C118.023 121.911 117.528 121.771 116.936 121.771C116.428 121.771 115.992 121.876 115.627 122.084C115.269 122.292 114.976 122.572 114.748 122.924C114.514 123.282 114.341 123.695 114.23 124.164C114.12 124.626 114.064 125.115 114.064 125.629V125.834ZM129.279 131.195C128.537 131.195 127.854 131.068 127.229 130.814C126.61 130.561 126.079 130.206 125.637 129.75C125.194 129.294 124.849 128.754 124.602 128.129C124.354 127.504 124.23 126.824 124.23 126.088V125.678C124.23 124.825 124.367 124.063 124.641 123.393C124.914 122.715 125.279 122.143 125.734 121.674C126.184 121.212 126.695 120.857 127.268 120.609C127.847 120.362 128.439 120.238 129.045 120.238C129.807 120.238 130.471 120.372 131.037 120.639C131.61 120.899 132.085 121.26 132.463 121.723C132.84 122.191 133.12 122.742 133.303 123.373C133.492 124.005 133.586 124.688 133.586 125.424V126.234H126.037V126.303C126.083 126.817 126.184 127.27 126.34 127.66C126.503 128.051 126.724 128.396 127.004 128.695C127.29 129.014 127.635 129.265 128.039 129.447C128.443 129.63 128.889 129.721 129.377 129.721C130.021 129.721 130.594 129.59 131.096 129.33C131.597 129.07 132.014 128.725 132.346 128.295L133.449 129.154C133.098 129.688 132.57 130.163 131.867 130.58C131.171 130.99 130.308 131.195 129.279 131.195ZM129.045 121.723C128.68 121.723 128.335 121.791 128.01 121.928C127.684 122.058 127.391 122.25 127.131 122.504C126.87 122.764 126.649 123.083 126.467 123.461C126.291 123.832 126.167 124.262 126.096 124.75H131.779V124.662C131.779 124.337 131.717 123.988 131.594 123.617C131.47 123.24 131.298 122.914 131.076 122.641C130.855 122.367 130.575 122.146 130.236 121.977C129.904 121.807 129.507 121.723 129.045 121.723ZM157.844 126.723C157.759 127.38 157.59 127.986 157.336 128.539C157.082 129.086 156.753 129.555 156.35 129.945C155.939 130.342 155.454 130.652 154.895 130.873C154.341 131.088 153.723 131.195 153.039 131.195C152.453 131.195 151.919 131.114 151.438 130.951C150.962 130.782 150.539 130.551 150.168 130.258C149.79 129.965 149.465 129.62 149.191 129.223C148.924 128.826 148.703 128.393 148.527 127.924C148.345 127.455 148.208 126.964 148.117 126.449C148.033 125.935 147.987 125.414 147.98 124.887V122.904C147.987 122.377 148.033 121.856 148.117 121.342C148.208 120.827 148.345 120.336 148.527 119.867C148.703 119.398 148.924 118.965 149.191 118.568C149.465 118.165 149.79 117.816 150.168 117.523C150.539 117.23 150.962 117.003 151.438 116.84C151.913 116.671 152.447 116.586 153.039 116.586C153.749 116.586 154.383 116.697 154.943 116.918C155.503 117.133 155.985 117.439 156.389 117.836C156.792 118.24 157.115 118.721 157.355 119.281C157.603 119.841 157.766 120.46 157.844 121.137H156.037C155.979 120.707 155.878 120.307 155.734 119.936C155.591 119.564 155.399 119.239 155.158 118.959C154.917 118.679 154.621 118.461 154.27 118.305C153.924 118.142 153.514 118.061 153.039 118.061C152.609 118.061 152.229 118.132 151.896 118.275C151.571 118.412 151.291 118.601 151.057 118.842C150.816 119.083 150.614 119.363 150.451 119.682C150.295 120.001 150.168 120.339 150.07 120.697C149.973 121.055 149.901 121.423 149.855 121.801C149.816 122.172 149.797 122.533 149.797 122.885V124.887C149.797 125.238 149.816 125.603 149.855 125.98C149.901 126.352 149.973 126.716 150.07 127.074C150.168 127.439 150.295 127.781 150.451 128.1C150.607 128.419 150.806 128.699 151.047 128.939C151.288 129.187 151.571 129.382 151.896 129.525C152.222 129.662 152.603 129.73 153.039 129.73C153.514 129.73 153.924 129.656 154.27 129.506C154.621 129.356 154.917 129.145 155.158 128.871C155.399 128.604 155.591 128.288 155.734 127.924C155.878 127.553 155.979 127.152 156.037 126.723H157.844ZM160.93 116H166.33V129.438H169.777V131H160.93V129.438H164.523V117.572H160.93V116ZM179.602 131C179.53 130.863 179.471 130.694 179.426 130.492C179.387 130.284 179.357 130.069 179.338 129.848C179.156 130.03 178.951 130.202 178.723 130.365C178.501 130.528 178.257 130.671 177.99 130.795C177.717 130.919 177.427 131.016 177.121 131.088C176.815 131.16 176.49 131.195 176.145 131.195C175.585 131.195 175.077 131.114 174.621 130.951C174.172 130.788 173.791 130.567 173.479 130.287C173.16 130.014 172.912 129.688 172.736 129.311C172.567 128.926 172.482 128.513 172.482 128.07C172.482 127.491 172.596 126.983 172.824 126.547C173.059 126.111 173.387 125.746 173.811 125.453C174.234 125.167 174.742 124.952 175.334 124.809C175.933 124.665 176.6 124.594 177.336 124.594H179.309V123.764C179.309 123.445 179.25 123.158 179.133 122.904C179.016 122.65 178.85 122.432 178.635 122.25C178.42 122.074 178.156 121.938 177.844 121.84C177.538 121.742 177.193 121.693 176.809 121.693C176.451 121.693 176.128 121.739 175.842 121.83C175.562 121.921 175.324 122.042 175.129 122.191C174.934 122.341 174.781 122.52 174.67 122.729C174.566 122.93 174.514 123.142 174.514 123.363H172.697C172.704 122.979 172.801 122.602 172.99 122.23C173.186 121.859 173.465 121.524 173.83 121.225C174.188 120.932 174.624 120.694 175.139 120.512C175.66 120.329 176.249 120.238 176.906 120.238C177.505 120.238 178.062 120.313 178.576 120.463C179.09 120.606 179.536 120.824 179.914 121.117C180.285 121.417 180.578 121.788 180.793 122.23C181.008 122.673 181.115 123.191 181.115 123.783V128.695C181.115 129.047 181.148 129.421 181.213 129.818C181.278 130.209 181.369 130.551 181.486 130.844V131H179.602ZM176.408 129.623C176.76 129.623 177.089 129.577 177.395 129.486C177.701 129.395 177.98 129.275 178.234 129.125C178.482 128.975 178.697 128.806 178.879 128.617C179.061 128.422 179.204 128.22 179.309 128.012V125.873H177.629C177.004 125.873 176.457 125.928 175.988 126.039C175.526 126.143 175.158 126.306 174.885 126.527C174.689 126.684 174.54 126.869 174.436 127.084C174.338 127.299 174.289 127.543 174.289 127.816C174.289 128.077 174.331 128.318 174.416 128.539C174.507 128.76 174.641 128.949 174.816 129.105C174.992 129.268 175.214 129.395 175.48 129.486C175.747 129.577 176.057 129.623 176.408 129.623ZM191.594 120.238C191.926 120.238 192.271 120.261 192.629 120.307C192.993 120.352 193.267 120.414 193.449 120.492L193.205 122.26C192.854 122.182 192.518 122.126 192.199 122.094C191.887 122.055 191.558 122.035 191.213 122.035C190.77 122.035 190.37 122.09 190.012 122.201C189.654 122.305 189.341 122.462 189.074 122.67C188.833 122.852 188.622 123.077 188.439 123.344C188.264 123.604 188.117 123.897 188 124.223V131H186.184V120.434H187.902L187.98 121.85L187.99 122.113C188.42 121.534 188.934 121.078 189.533 120.746C190.139 120.408 190.826 120.238 191.594 120.238ZM196.965 120.434H202.365V129.438H205.812V131H196.965V129.438H200.559V122.006H196.965V120.434ZM200.324 117.66C200.324 117.504 200.347 117.357 200.393 117.221C200.445 117.084 200.523 116.967 200.627 116.869C200.712 116.785 200.819 116.719 200.949 116.674C201.086 116.622 201.239 116.596 201.408 116.596C201.577 116.596 201.727 116.622 201.857 116.674C201.988 116.719 202.095 116.785 202.18 116.869C202.284 116.96 202.362 117.074 202.414 117.211C202.466 117.348 202.492 117.497 202.492 117.66C202.492 117.953 202.401 118.197 202.219 118.393C202.036 118.588 201.766 118.686 201.408 118.686C201.044 118.686 200.77 118.588 200.588 118.393C200.412 118.197 200.324 117.953 200.324 117.66ZM215.715 128.197C215.715 127.982 215.673 127.79 215.588 127.621C215.503 127.445 215.36 127.286 215.158 127.143C214.956 126.999 214.689 126.869 214.357 126.752C214.025 126.628 213.612 126.518 213.117 126.42C212.512 126.296 211.958 126.146 211.457 125.971C210.962 125.795 210.539 125.583 210.188 125.336C209.829 125.095 209.553 124.812 209.357 124.486C209.162 124.154 209.064 123.77 209.064 123.334C209.064 122.904 209.165 122.504 209.367 122.133C209.569 121.755 209.852 121.426 210.217 121.146C210.581 120.867 211.014 120.645 211.516 120.482C212.023 120.32 212.58 120.238 213.186 120.238C213.837 120.238 214.423 120.323 214.943 120.492C215.464 120.661 215.907 120.896 216.271 121.195C216.636 121.495 216.916 121.846 217.111 122.25C217.313 122.647 217.414 123.077 217.414 123.539H215.607C215.607 123.311 215.549 123.09 215.432 122.875C215.314 122.654 215.152 122.458 214.943 122.289C214.735 122.12 214.481 121.983 214.182 121.879C213.889 121.775 213.557 121.723 213.186 121.723C212.801 121.723 212.463 121.765 212.17 121.85C211.883 121.934 211.646 122.048 211.457 122.191C211.262 122.335 211.115 122.501 211.018 122.689C210.92 122.878 210.871 123.074 210.871 123.275C210.871 123.484 210.91 123.669 210.988 123.832C211.066 123.995 211.203 124.141 211.398 124.271C211.587 124.402 211.841 124.519 212.16 124.623C212.486 124.727 212.896 124.828 213.391 124.926C214.042 125.062 214.624 125.222 215.139 125.404C215.653 125.58 216.086 125.792 216.438 126.039C216.789 126.293 217.056 126.586 217.238 126.918C217.427 127.25 217.521 127.634 217.521 128.07C217.521 128.539 217.414 128.965 217.199 129.35C216.991 129.734 216.698 130.062 216.32 130.336C215.943 130.609 215.49 130.821 214.963 130.971C214.436 131.12 213.859 131.195 213.234 131.195C212.518 131.195 211.88 131.101 211.32 130.912C210.76 130.717 210.288 130.46 209.904 130.141C209.514 129.828 209.214 129.464 209.006 129.047C208.804 128.63 208.703 128.197 208.703 127.748H210.51C210.536 128.119 210.633 128.432 210.803 128.686C210.979 128.939 211.197 129.145 211.457 129.301C211.711 129.457 211.994 129.568 212.307 129.633C212.619 129.698 212.928 129.73 213.234 129.73C213.716 129.73 214.136 129.675 214.494 129.564C214.852 129.447 215.132 129.288 215.334 129.086C215.458 128.962 215.552 128.826 215.617 128.676C215.682 128.526 215.715 128.367 215.715 128.197ZM227.727 128.197C227.727 127.982 227.684 127.79 227.6 127.621C227.515 127.445 227.372 127.286 227.17 127.143C226.968 126.999 226.701 126.869 226.369 126.752C226.037 126.628 225.624 126.518 225.129 126.42C224.523 126.296 223.97 126.146 223.469 125.971C222.974 125.795 222.551 125.583 222.199 125.336C221.841 125.095 221.564 124.812 221.369 124.486C221.174 124.154 221.076 123.77 221.076 123.334C221.076 122.904 221.177 122.504 221.379 122.133C221.581 121.755 221.864 121.426 222.229 121.146C222.593 120.867 223.026 120.645 223.527 120.482C224.035 120.32 224.592 120.238 225.197 120.238C225.848 120.238 226.434 120.323 226.955 120.492C227.476 120.661 227.919 120.896 228.283 121.195C228.648 121.495 228.928 121.846 229.123 122.25C229.325 122.647 229.426 123.077 229.426 123.539H227.619C227.619 123.311 227.561 123.09 227.443 122.875C227.326 122.654 227.163 122.458 226.955 122.289C226.747 122.12 226.493 121.983 226.193 121.879C225.9 121.775 225.568 121.723 225.197 121.723C224.813 121.723 224.475 121.765 224.182 121.85C223.895 121.934 223.658 122.048 223.469 122.191C223.273 122.335 223.127 122.501 223.029 122.689C222.932 122.878 222.883 123.074 222.883 123.275C222.883 123.484 222.922 123.669 223 123.832C223.078 123.995 223.215 124.141 223.41 124.271C223.599 124.402 223.853 124.519 224.172 124.623C224.497 124.727 224.908 124.828 225.402 124.926C226.053 125.062 226.636 125.222 227.15 125.404C227.665 125.58 228.098 125.792 228.449 126.039C228.801 126.293 229.068 126.586 229.25 126.918C229.439 127.25 229.533 127.634 229.533 128.07C229.533 128.539 229.426 128.965 229.211 129.35C229.003 129.734 228.71 130.062 228.332 130.336C227.954 130.609 227.502 130.821 226.975 130.971C226.447 131.12 225.871 131.195 225.246 131.195C224.53 131.195 223.892 131.101 223.332 130.912C222.772 130.717 222.3 130.46 221.916 130.141C221.525 129.828 221.226 129.464 221.018 129.047C220.816 128.63 220.715 128.197 220.715 127.748H222.521C222.548 128.119 222.645 128.432 222.814 128.686C222.99 128.939 223.208 129.145 223.469 129.301C223.723 129.457 224.006 129.568 224.318 129.633C224.631 129.698 224.94 129.73 225.246 129.73C225.728 129.73 226.148 129.675 226.506 129.564C226.864 129.447 227.144 129.288 227.346 129.086C227.469 128.962 227.564 128.826 227.629 128.676C227.694 128.526 227.727 128.367 227.727 128.197ZM237.385 131.195C236.643 131.195 235.959 131.068 235.334 130.814C234.715 130.561 234.185 130.206 233.742 129.75C233.299 129.294 232.954 128.754 232.707 128.129C232.46 127.504 232.336 126.824 232.336 126.088V125.678C232.336 124.825 232.473 124.063 232.746 123.393C233.02 122.715 233.384 122.143 233.84 121.674C234.289 121.212 234.8 120.857 235.373 120.609C235.952 120.362 236.545 120.238 237.15 120.238C237.912 120.238 238.576 120.372 239.143 120.639C239.715 120.899 240.191 121.26 240.568 121.723C240.946 122.191 241.226 122.742 241.408 123.373C241.597 124.005 241.691 124.688 241.691 125.424V126.234H234.143V126.303C234.188 126.817 234.289 127.27 234.445 127.66C234.608 128.051 234.829 128.396 235.109 128.695C235.396 129.014 235.741 129.265 236.145 129.447C236.548 129.63 236.994 129.721 237.482 129.721C238.127 129.721 238.7 129.59 239.201 129.33C239.702 129.07 240.119 128.725 240.451 128.295L241.555 129.154C241.203 129.688 240.676 130.163 239.973 130.58C239.276 130.99 238.413 131.195 237.385 131.195ZM237.15 121.723C236.786 121.723 236.441 121.791 236.115 121.928C235.79 122.058 235.497 122.25 235.236 122.504C234.976 122.764 234.755 123.083 234.572 123.461C234.396 123.832 234.273 124.262 234.201 124.75H239.885V124.662C239.885 124.337 239.823 123.988 239.699 123.617C239.576 123.24 239.403 122.914 239.182 122.641C238.96 122.367 238.68 122.146 238.342 121.977C238.01 121.807 237.613 121.723 237.15 121.723ZM256.086 127.357C256.086 126.921 256.151 126.518 256.281 126.146C256.411 125.775 256.594 125.427 256.828 125.102C257.03 124.828 257.261 124.568 257.521 124.32C257.788 124.073 258.081 123.829 258.4 123.588L258.752 123.334C258.511 123.008 258.296 122.696 258.107 122.396C257.919 122.09 257.762 121.791 257.639 121.498C257.541 121.257 257.463 121.013 257.404 120.766C257.352 120.518 257.326 120.264 257.326 120.004C257.326 119.451 257.408 118.962 257.57 118.539C257.74 118.109 257.977 117.748 258.283 117.455C258.589 117.169 258.957 116.951 259.387 116.801C259.816 116.651 260.298 116.576 260.832 116.576C261.294 116.576 261.714 116.658 262.092 116.82C262.469 116.983 262.792 117.201 263.059 117.475C263.319 117.755 263.521 118.077 263.664 118.441C263.807 118.806 263.879 119.19 263.879 119.594C263.879 119.939 263.827 120.255 263.723 120.541C263.625 120.821 263.488 121.085 263.312 121.332C263.13 121.579 262.915 121.814 262.668 122.035C262.421 122.257 262.154 122.475 261.867 122.689L260.949 123.471L263.947 127.406C264.175 126.99 264.354 126.534 264.484 126.039C264.615 125.544 264.683 125.01 264.689 124.438H266.32C266.32 125.271 266.2 126.046 265.959 126.762C265.725 127.471 265.38 128.113 264.924 128.686L266.691 131H264.533L263.723 129.926C263.54 130.082 263.348 130.225 263.146 130.355C262.951 130.486 262.749 130.6 262.541 130.697C262.196 130.86 261.835 130.984 261.457 131.068C261.086 131.153 260.702 131.195 260.305 131.195C259.66 131.195 259.077 131.101 258.557 130.912C258.036 130.723 257.593 130.46 257.229 130.121C256.864 129.783 256.581 129.379 256.379 128.91C256.184 128.435 256.086 127.917 256.086 127.357ZM260.305 129.73C260.572 129.73 260.835 129.701 261.096 129.643C261.356 129.584 261.607 129.499 261.848 129.389C262.023 129.311 262.193 129.219 262.355 129.115C262.525 129.005 262.688 128.884 262.844 128.754L259.689 124.545L259.416 124.779C259.09 125.046 258.827 125.307 258.625 125.561C258.423 125.814 258.27 126.052 258.166 126.273C258.055 126.501 257.98 126.71 257.941 126.898C257.909 127.081 257.893 127.234 257.893 127.357C257.893 127.689 257.945 127.999 258.049 128.285C258.153 128.572 258.306 128.822 258.508 129.037C258.71 129.252 258.96 129.421 259.26 129.545C259.559 129.669 259.908 129.73 260.305 129.73ZM259.143 119.984C259.143 120.147 259.159 120.313 259.191 120.482C259.224 120.645 259.273 120.808 259.338 120.971C259.416 121.186 259.517 121.404 259.641 121.625C259.764 121.846 259.908 122.074 260.07 122.309L261.213 121.4C261.415 121.264 261.581 121.12 261.711 120.971C261.841 120.821 261.942 120.668 262.014 120.512C262.085 120.362 262.134 120.209 262.16 120.053C262.193 119.896 262.209 119.743 262.209 119.594C262.209 119.398 262.176 119.21 262.111 119.027C262.053 118.839 261.965 118.673 261.848 118.529C261.724 118.393 261.577 118.282 261.408 118.197C261.239 118.106 261.047 118.061 260.832 118.061C260.552 118.061 260.305 118.113 260.09 118.217C259.882 118.321 259.709 118.461 259.572 118.637C259.429 118.812 259.322 119.018 259.25 119.252C259.178 119.48 259.143 119.724 259.143 119.984ZM290.354 118.324H285.959V131H284.201V118.324H279.807V116.781H290.354V118.324ZM297.443 131.195C296.701 131.195 296.018 131.068 295.393 130.814C294.774 130.561 294.243 130.206 293.801 129.75C293.358 129.294 293.013 128.754 292.766 128.129C292.518 127.504 292.395 126.824 292.395 126.088V125.678C292.395 124.825 292.531 124.063 292.805 123.393C293.078 122.715 293.443 122.143 293.898 121.674C294.348 121.212 294.859 120.857 295.432 120.609C296.011 120.362 296.604 120.238 297.209 120.238C297.971 120.238 298.635 120.372 299.201 120.639C299.774 120.899 300.249 121.26 300.627 121.723C301.005 122.191 301.285 122.742 301.467 123.373C301.656 124.005 301.75 124.688 301.75 125.424V126.234H294.201V126.303C294.247 126.817 294.348 127.27 294.504 127.66C294.667 128.051 294.888 128.396 295.168 128.695C295.454 129.014 295.799 129.265 296.203 129.447C296.607 129.63 297.053 129.721 297.541 129.721C298.186 129.721 298.758 129.59 299.26 129.33C299.761 129.07 300.178 128.725 300.51 128.295L301.613 129.154C301.262 129.688 300.734 130.163 300.031 130.58C299.335 130.99 298.472 131.195 297.443 131.195ZM297.209 121.723C296.844 121.723 296.499 121.791 296.174 121.928C295.848 122.058 295.555 122.25 295.295 122.504C295.035 122.764 294.813 123.083 294.631 123.461C294.455 123.832 294.331 124.262 294.26 124.75H299.943V124.662C299.943 124.337 299.882 123.988 299.758 123.617C299.634 123.24 299.462 122.914 299.24 122.641C299.019 122.367 298.739 122.146 298.4 121.977C298.068 121.807 297.671 121.723 297.209 121.723ZM298.088 116.322H300.275L297.658 118.92H296.291L298.088 116.322ZM304.279 125.619C304.279 124.857 304.39 124.151 304.611 123.5C304.833 122.842 305.152 122.273 305.568 121.791C305.979 121.309 306.48 120.932 307.072 120.658C307.665 120.378 308.332 120.238 309.074 120.238C309.823 120.238 310.493 120.378 311.086 120.658C311.685 120.932 312.193 121.309 312.609 121.791C313.02 122.273 313.335 122.842 313.557 123.5C313.778 124.151 313.889 124.857 313.889 125.619V125.834C313.889 126.596 313.778 127.302 313.557 127.953C313.335 128.604 313.02 129.171 312.609 129.652C312.193 130.134 311.688 130.512 311.096 130.785C310.503 131.059 309.836 131.195 309.094 131.195C308.345 131.195 307.671 131.059 307.072 130.785C306.48 130.512 305.979 130.134 305.568 129.652C305.152 129.171 304.833 128.604 304.611 127.953C304.39 127.302 304.279 126.596 304.279 125.834V125.619ZM306.086 125.834C306.086 126.355 306.148 126.853 306.271 127.328C306.395 127.797 306.584 128.21 306.838 128.568C307.085 128.926 307.398 129.21 307.775 129.418C308.153 129.626 308.592 129.73 309.094 129.73C309.589 129.73 310.021 129.626 310.393 129.418C310.77 129.21 311.086 128.926 311.34 128.568C311.587 128.21 311.773 127.797 311.896 127.328C312.02 126.853 312.082 126.355 312.082 125.834V125.619C312.082 125.105 312.017 124.613 311.887 124.145C311.763 123.669 311.577 123.253 311.33 122.895C311.076 122.536 310.76 122.253 310.383 122.045C310.012 121.83 309.576 121.723 309.074 121.723C308.573 121.723 308.137 121.83 307.766 122.045C307.395 122.253 307.085 122.536 306.838 122.895C306.584 123.253 306.395 123.669 306.271 124.145C306.148 124.613 306.086 125.105 306.086 125.619V125.834Z" fill="black"/>
</svg>
