<svg width="183" height="38" viewBox="0 0 183 38" fill="none" xmlns="http://www.w3.org/2000/svg">
<mask id="path-1-outside-1_14_121" maskUnits="userSpaceOnUse" x="0.644531" y="0" width="183" height="38" fill="black">
<rect fill="white" x="0.644531" width="183" height="38"/>
<path fill-rule="evenodd" clip-rule="evenodd" d="M17.5014 2C16.9603 2 16.4424 2.21922 16.0657 2.60762L3.20883 15.8646C2.51537 16.5797 2.45378 17.696 3.06437 18.483L16.0544 35.226C16.4333 35.7143 17.0166 36 17.6346 36H179C180.105 36 181 35.1046 181 34V4C181 2.89543 180.105 2 179 2H17.5014Z"/>
</mask>
<path fill-rule="evenodd" clip-rule="evenodd" d="M17.5014 2C16.9603 2 16.4424 2.21922 16.0657 2.60762L3.20883 15.8646C2.51537 16.5797 2.45378 17.696 3.06437 18.483L16.0544 35.226C16.4333 35.7143 17.0166 36 17.6346 36H179C180.105 36 181 35.1046 181 34V4C181 2.89543 180.105 2 179 2H17.5014Z" fill="white"/>
<path d="M16.0544 35.226L17.6346 34L16.0544 35.226ZM16.0657 2.60762L14.63 1.21524L16.0657 2.60762ZM4.64454 17.257L17.5014 4L14.63 1.21524L1.77311 14.4723L4.64454 17.257ZM17.6346 34L4.64454 17.257L1.48419 19.709L14.4743 36.452L17.6346 34ZM179 34H17.6346V38H179V34ZM179 4V34H183V4H179ZM17.5014 4H179V0H17.5014V4ZM183 4C183 1.79087 181.209 0 179 0V4L179 4H183ZM179 38C181.209 38 183 36.2091 183 34H179L179 34V38ZM14.4743 36.452C15.2319 37.4286 16.3986 38 17.6346 38V34L17.6346 34L14.4743 36.452ZM17.5014 4L17.5014 4V0C16.4193 0 15.3833 0.438433 14.63 1.21524L17.5014 4ZM1.77311 14.4723C0.386198 15.9023 0.263018 18.135 1.48419 19.709L4.64454 17.257L4.64454 17.257L1.77311 14.4723Z" fill="black" mask="url(#path-1-outside-1_14_121)"/>
<path d="M28.9879 22.377C28.9879 22.0579 28.9521 21.778 28.8805 21.5371C28.8154 21.2897 28.6884 21.0651 28.4996 20.8633C28.3173 20.6615 28.0569 20.4694 27.7184 20.2871C27.3863 20.0983 26.9632 19.9062 26.4488 19.7109C25.8759 19.5026 25.3486 19.2715 24.8668 19.0176C24.385 18.7572 23.9684 18.4609 23.6168 18.1289C23.2717 17.7969 23.0016 17.4128 22.8063 16.9766C22.6174 16.5404 22.523 16.0391 22.523 15.4727C22.523 14.9128 22.6207 14.3984 22.816 13.9297C23.0113 13.4544 23.2913 13.0443 23.6559 12.6992C24.027 12.3477 24.4664 12.0742 24.9742 11.8789C25.4885 11.6836 26.0615 11.5859 26.693 11.5859C27.6109 11.5859 28.3889 11.7878 29.027 12.1914C29.6715 12.5885 30.1598 13.1159 30.4918 13.7734C30.8303 14.4245 30.9996 15.1341 30.9996 15.9023H28.9684C28.9684 15.401 28.887 14.9551 28.7242 14.5645C28.568 14.1738 28.3206 13.8678 27.982 13.6465C27.65 13.4186 27.2171 13.3047 26.6832 13.3047C26.1949 13.3047 25.7945 13.3991 25.482 13.5879C25.1695 13.7767 24.9384 14.0339 24.7887 14.3594C24.6389 14.6849 24.5641 15.0527 24.5641 15.4629C24.5641 15.7493 24.6161 16.0098 24.7203 16.2441C24.831 16.472 24.9905 16.6836 25.1988 16.8789C25.4137 17.0742 25.6806 17.2565 25.9996 17.4258C26.3186 17.5885 26.6897 17.748 27.1129 17.9043C27.7965 18.1387 28.3857 18.3991 28.8805 18.6855C29.3753 18.9655 29.7789 19.2845 30.0914 19.6426C30.4104 19.9941 30.6448 20.3945 30.7945 20.8438C30.9508 21.2865 31.0289 21.791 31.0289 22.3574C31.0289 22.9368 30.9313 23.4642 30.7359 23.9395C30.5406 24.4082 30.2574 24.8118 29.8863 25.1504C29.5152 25.4824 29.0693 25.7396 28.5484 25.9219C28.0276 26.1042 27.4417 26.1953 26.7906 26.1953C26.2047 26.1953 25.6383 26.1042 25.0914 25.9219C24.5445 25.7396 24.0497 25.4661 23.607 25.1016C23.1708 24.7305 22.8225 24.2715 22.5621 23.7246C22.3082 23.1712 22.1813 22.5299 22.1813 21.8008H24.2125C24.2125 22.2695 24.2776 22.6732 24.4078 23.0117C24.538 23.3503 24.7203 23.6302 24.9547 23.8516C25.1956 24.0664 25.4723 24.2259 25.7848 24.3301C26.0973 24.4277 26.4358 24.4766 26.8004 24.4766C27.2887 24.4766 27.6956 24.3919 28.0211 24.2227C28.3466 24.0469 28.5875 23.8027 28.7438 23.4902C28.9065 23.1712 28.9879 22.8001 28.9879 22.377ZM41.4484 24.2812V26H35.2766V24.2812H41.4484ZM35.7258 11.7812V26H33.6848V11.7812H35.7258ZM40.6184 17.8164V19.5254H35.2766V17.8164H40.6184ZM41.3703 11.7812V13.5098H35.2766V11.7812H41.3703ZM53.45 11.7812V26H51.4285L46.0184 15.502V26H44.0066V11.7812H46.0184L51.4578 22.3184V11.7812H53.45ZM62.9418 22.377C62.9418 22.0579 62.906 21.778 62.8344 21.5371C62.7693 21.2897 62.6423 21.0651 62.4535 20.8633C62.2712 20.6615 62.0108 20.4694 61.6723 20.2871C61.3402 20.0983 60.9171 19.9062 60.4027 19.7109C59.8298 19.5026 59.3025 19.2715 58.8207 19.0176C58.3389 18.7572 57.9223 18.4609 57.5707 18.1289C57.2257 17.7969 56.9555 17.4128 56.7602 16.9766C56.5714 16.5404 56.477 16.0391 56.477 15.4727C56.477 14.9128 56.5746 14.3984 56.7699 13.9297C56.9652 13.4544 57.2452 13.0443 57.6098 12.6992C57.9809 12.3477 58.4203 12.0742 58.9281 11.8789C59.4425 11.6836 60.0154 11.5859 60.6469 11.5859C61.5648 11.5859 62.3428 11.7878 62.9809 12.1914C63.6254 12.5885 64.1137 13.1159 64.4457 13.7734C64.7842 14.4245 64.9535 15.1341 64.9535 15.9023H62.9223C62.9223 15.401 62.8409 14.9551 62.6781 14.5645C62.5219 14.1738 62.2745 13.8678 61.9359 13.6465C61.6039 13.4186 61.171 13.3047 60.6371 13.3047C60.1488 13.3047 59.7484 13.3991 59.4359 13.5879C59.1234 13.7767 58.8923 14.0339 58.7426 14.3594C58.5928 14.6849 58.518 15.0527 58.518 15.4629C58.518 15.7493 58.5701 16.0098 58.6742 16.2441C58.7849 16.472 58.9444 16.6836 59.1527 16.8789C59.3676 17.0742 59.6345 17.2565 59.9535 17.4258C60.2725 17.5885 60.6436 17.748 61.0668 17.9043C61.7504 18.1387 62.3396 18.3991 62.8344 18.6855C63.3292 18.9655 63.7328 19.2845 64.0453 19.6426C64.3643 19.9941 64.5987 20.3945 64.7484 20.8438C64.9047 21.2865 64.9828 21.791 64.9828 22.3574C64.9828 22.9368 64.8852 23.4642 64.6898 23.9395C64.4945 24.4082 64.2113 24.8118 63.8402 25.1504C63.4691 25.4824 63.0232 25.7396 62.5023 25.9219C61.9815 26.1042 61.3956 26.1953 60.7445 26.1953C60.1586 26.1953 59.5922 26.1042 59.0453 25.9219C58.4984 25.7396 58.0036 25.4661 57.5609 25.1016C57.1247 24.7305 56.7764 24.2715 56.516 23.7246C56.2621 23.1712 56.1352 22.5299 56.1352 21.8008H58.1664C58.1664 22.2695 58.2315 22.6732 58.3617 23.0117C58.4919 23.3503 58.6742 23.6302 58.9086 23.8516C59.1495 24.0664 59.4262 24.2259 59.7387 24.3301C60.0512 24.4277 60.3897 24.4766 60.7543 24.4766C61.2426 24.4766 61.6495 24.3919 61.975 24.2227C62.3005 24.0469 62.5414 23.8027 62.6977 23.4902C62.8604 23.1712 62.9418 22.8001 62.9418 22.377ZM75.9879 26H73.5465L73.566 24.2812H75.9879C76.8017 24.2812 77.456 24.125 77.9508 23.8125C78.4521 23.5 78.8199 23.0345 79.0543 22.416C79.2887 21.791 79.4059 21.013 79.4059 20.082V17.6895C79.4059 16.9603 79.3408 16.332 79.2105 15.8047C79.0803 15.2773 78.8818 14.8477 78.6148 14.5156C78.3479 14.1771 78.0061 13.9264 77.5895 13.7637C77.1793 13.5944 76.6878 13.5098 76.1148 13.5098H73.4977V11.7812H76.1148C76.9221 11.7812 77.6513 11.9082 78.3023 12.1621C78.9534 12.416 79.51 12.7936 79.9723 13.2949C80.441 13.7962 80.7991 14.418 81.0465 15.1602C81.3004 15.8958 81.4273 16.7454 81.4273 17.709V20.082C81.4273 21.0456 81.3004 21.8984 81.0465 22.6406C80.7991 23.3763 80.441 23.9948 79.9723 24.4961C79.5035 24.9909 78.9339 25.3652 78.2633 25.6191C77.5927 25.873 76.8342 26 75.9879 26ZM74.6891 11.7812V26H72.648V11.7812H74.6891ZM92.1984 24.2812V26H86.0266V24.2812H92.1984ZM86.4758 11.7812V26H84.4348V11.7812H86.4758ZM91.3684 17.8164V19.5254H86.0266V17.8164H91.3684ZM92.1203 11.7812V13.5098H86.0266V11.7812H92.1203ZM100.44 11.7812H102.354L105.889 22.9434L109.405 11.7812H111.26L106.651 26H105.108L100.44 11.7812ZM99.766 11.7812H101.485L101.778 20.6094V26H99.766V11.7812ZM110.264 11.7812H111.983V26H109.971V20.6094L110.264 11.7812ZM120.195 13.334L116.494 26H114.385L118.936 11.7812H120.254L120.195 13.334ZM123.174 26L119.463 13.334L119.385 11.7812H120.723L125.283 26H123.174ZM123.193 20.7266V22.4551H116.436V20.7266H123.193ZM127.509 11.7812H131.621C132.552 11.7812 133.336 11.944 133.974 12.2695C134.612 12.5951 135.094 13.0768 135.42 13.7148C135.752 14.3464 135.918 15.1276 135.918 16.0586C135.918 16.7357 135.81 17.3444 135.595 17.8848C135.387 18.4186 135.081 18.8711 134.677 19.2422C134.274 19.6133 133.782 19.8932 133.203 20.082L132.627 20.3652H129.052L129.033 18.6367H131.582C132.096 18.6367 132.522 18.526 132.861 18.3047C133.206 18.0833 133.463 17.7806 133.632 17.3965C133.802 17.0124 133.886 16.5827 133.886 16.1074C133.886 15.5866 133.808 15.1309 133.652 14.7402C133.502 14.3496 133.261 14.0469 132.929 13.832C132.604 13.6172 132.168 13.5098 131.621 13.5098H129.55V26H127.509V11.7812ZM134.248 26L131.474 19.5742H133.593L136.435 25.8828V26H134.248ZM145.663 21.4297H147.704C147.659 22.4258 147.457 23.2819 147.099 23.998C146.741 24.7077 146.223 25.2513 145.546 25.6289C144.876 26.0065 144.042 26.1953 143.046 26.1953C142.317 26.1953 141.659 26.0586 141.073 25.7852C140.494 25.5052 139.999 25.1048 139.589 24.584C139.179 24.0632 138.866 23.4316 138.652 22.6895C138.437 21.9473 138.329 21.1107 138.329 20.1797V17.6016C138.329 16.6706 138.437 15.834 138.652 15.0918C138.873 14.3496 139.192 13.7181 139.609 13.1973C140.032 12.6764 140.543 12.2793 141.142 12.0059C141.741 11.7259 142.421 11.5859 143.183 11.5859C144.133 11.5859 144.934 11.7715 145.585 12.1426C146.243 12.5137 146.747 13.0573 147.099 13.7734C147.457 14.4896 147.659 15.3652 147.704 16.4004H145.663C145.624 15.6647 145.517 15.0723 145.341 14.623C145.165 14.1673 144.902 13.8353 144.55 13.627C144.205 13.4186 143.749 13.3145 143.183 13.3145C142.695 13.3145 142.271 13.4121 141.913 13.6074C141.555 13.7962 141.262 14.0729 141.034 14.4375C140.807 14.8021 140.637 15.248 140.527 15.7754C140.416 16.3027 140.361 16.9049 140.361 17.582V20.1797C140.361 20.8112 140.406 21.3906 140.497 21.918C140.595 22.4453 140.748 22.901 140.956 23.2852C141.165 23.6628 141.438 23.9557 141.777 24.1641C142.122 24.3724 142.545 24.4766 143.046 24.4766C143.665 24.4766 144.153 24.3789 144.511 24.1836C144.876 23.9818 145.146 23.6595 145.321 23.2168C145.497 22.7676 145.611 22.1719 145.663 21.4297ZM158.124 17.8164V19.5352H152.04V17.8164H158.124ZM152.411 11.7812V26H150.37V11.7812H152.411ZM159.823 11.7812V26H157.792V11.7812H159.823ZM170.916 24.2812V26H164.745V24.2812H170.916ZM165.194 11.7812V26H163.153V11.7812H165.194ZM170.086 17.8164V19.5254H164.745V17.8164H170.086ZM170.838 11.7812V13.5098H164.745V11.7812H170.838Z" fill="black"/>
</svg>
