<svg width="434" height="159" viewBox="0 0 434 159" fill="none" xmlns="http://www.w3.org/2000/svg">
<rect x="2.5" y="2.5" width="429" height="154" rx="4.5" stroke="white" stroke-width="5"/>
<rect x="4" y="4" width="426" height="151" rx="3" fill="white"/>
<rect x="4" y="4" width="426" height="151" rx="3" stroke="black" stroke-width="2"/>
<path d="M43.2695 49.9336V53H31.4727V49.9336H43.2695ZM32.1172 24.5625V53H28.5234V24.5625H32.1172ZM57.1562 27.082L49.3828 53H45.7109L54.8711 24.5625H57.1758L57.1562 27.082ZM63.4453 53L55.6719 27.082L55.6328 24.5625H57.957L67.1172 53H63.4453ZM63.4453 42.4727V45.5586H49.7344V42.4727H63.4453ZM98.0156 38.8398V49.4453C97.7031 49.862 97.2279 50.3828 96.5898 51.0078C95.9648 51.6328 95.0859 52.1862 93.9531 52.668C92.8203 53.1497 91.3359 53.3906 89.5 53.3906C88.0286 53.3906 86.681 53.1432 85.457 52.6484C84.2461 52.1536 83.1979 51.4115 82.3125 50.4219C81.4401 49.4193 80.763 48.1758 80.2812 46.6914C79.7995 45.194 79.5586 43.4427 79.5586 41.4375V36.1055C79.5586 34.1133 79.7604 32.3685 80.1641 30.8711C80.5677 29.3737 81.1667 28.1302 81.9609 27.1406C82.7682 26.151 83.7643 25.4089 84.9492 24.9141C86.1471 24.4193 87.5404 24.1719 89.1289 24.1719C90.9648 24.1719 92.5273 24.5169 93.8164 25.207C95.1055 25.8971 96.1016 26.8932 96.8047 28.1953C97.5208 29.4974 97.9245 31.0599 98.0156 32.8828H94.4219C94.3307 31.7109 94.0833 30.7083 93.6797 29.875C93.276 29.0286 92.7031 28.3841 91.9609 27.9414C91.2188 27.4857 90.2747 27.2578 89.1289 27.2578C88.0352 27.2578 87.1107 27.4401 86.3555 27.8047C85.6003 28.1693 84.9818 28.7161 84.5 29.4453C84.0312 30.1745 83.6862 31.0924 83.4648 32.1992C83.2565 33.306 83.1523 34.5951 83.1523 36.0664V41.4375C83.1523 42.9479 83.3021 44.263 83.6016 45.3828C83.901 46.5026 84.3242 47.4271 84.8711 48.1562C85.431 48.8854 86.1016 49.4323 86.8828 49.7969C87.6641 50.1484 88.543 50.3242 89.5195 50.3242C90.6263 50.3242 91.4987 50.207 92.1367 49.9727C92.7747 49.7383 93.263 49.4714 93.6016 49.1719C93.9531 48.8724 94.2331 48.6315 94.4414 48.4492V41.8867H89.2266V38.8398H98.0156ZM103.855 24.5625H111.805C113.654 24.5625 115.203 24.888 116.453 25.5391C117.716 26.1901 118.667 27.1536 119.305 28.4297C119.956 29.6927 120.281 31.2487 120.281 33.0977C120.281 34.3997 120.066 35.5911 119.637 36.6719C119.207 37.7396 118.582 38.651 117.762 39.4062C116.941 40.1484 115.945 40.7018 114.773 41.0664L113.797 41.4766H106.707L106.668 38.4102H111.766C112.859 38.4102 113.771 38.1758 114.5 37.707C115.229 37.2253 115.776 36.5807 116.141 35.7734C116.505 34.9661 116.688 34.0742 116.688 33.0977C116.688 32.0039 116.525 31.0469 116.199 30.2266C115.874 29.4062 115.353 28.7747 114.637 28.332C113.934 27.8763 112.99 27.6484 111.805 27.6484H107.449V53H103.855V24.5625ZM117.508 53L111.844 40.1094L115.574 40.0898L121.355 52.7656V53H117.508ZM134.305 27.082L126.531 53H122.859L132.02 24.5625H134.324L134.305 27.082ZM140.594 53L132.82 27.082L132.781 24.5625H135.105L144.266 53H140.594ZM140.594 42.4727V45.5586H126.883V42.4727H140.594ZM166.766 24.5625V53H163.152L151.766 31.0664V53H148.172V24.5625H151.766L163.211 46.5547V24.5625H166.766ZM179.422 53H174.578L174.617 49.9336H179.422C181.128 49.9336 182.514 49.6081 183.582 48.957C184.65 48.293 185.438 47.3164 185.945 46.0273C186.453 44.7253 186.707 43.1172 186.707 41.2031V36.3398C186.707 34.8294 186.564 33.5273 186.277 32.4336C185.991 31.3398 185.561 30.4414 184.988 29.7383C184.415 29.0352 183.693 28.5143 182.82 28.1758C181.948 27.8242 180.926 27.6484 179.754 27.6484H174.48V24.5625H179.754C181.355 24.5625 182.801 24.8164 184.09 25.3242C185.379 25.819 186.486 26.5677 187.41 27.5703C188.335 28.5599 189.038 29.7904 189.52 31.2617C190.014 32.7331 190.262 34.4388 190.262 36.3789V41.2031C190.262 43.1432 190.014 44.849 189.52 46.3203C189.038 47.7917 188.328 49.0221 187.391 50.0117C186.453 51.0013 185.314 51.75 183.973 52.2578C182.645 52.7526 181.128 53 179.422 53ZM176.57 24.5625V53H172.977V24.5625H176.57ZM211.121 49.9336V53H198.777V49.9336H211.121ZM199.422 24.5625V53H195.828V24.5625H199.422ZM209.461 36.7891V39.8555H198.777V36.7891H209.461ZM210.926 24.5625V27.6484H198.777V24.5625H210.926ZM233.25 24.5625V53H229.695V24.5625H233.25ZM240.73 24.5625V27.6484H222.234V24.5625H240.73ZM244.949 24.5625H252.898C254.747 24.5625 256.297 24.888 257.547 25.5391C258.81 26.1901 259.76 27.1536 260.398 28.4297C261.049 29.6927 261.375 31.2487 261.375 33.0977C261.375 34.3997 261.16 35.5911 260.73 36.6719C260.301 37.7396 259.676 38.651 258.855 39.4062C258.035 40.1484 257.039 40.7018 255.867 41.0664L254.891 41.4766H247.801L247.762 38.4102H252.859C253.953 38.4102 254.865 38.1758 255.594 37.707C256.323 37.2253 256.87 36.5807 257.234 35.7734C257.599 34.9661 257.781 34.0742 257.781 33.0977C257.781 32.0039 257.618 31.0469 257.293 30.2266C256.967 29.4062 256.447 28.7747 255.73 28.332C255.027 27.8763 254.083 27.6484 252.898 27.6484H248.543V53H244.949V24.5625ZM258.602 53L252.938 40.1094L256.668 40.0898L262.449 52.7656V53H258.602ZM275.398 27.082L267.625 53H263.953L273.113 24.5625H275.418L275.398 27.082ZM281.688 53L273.914 27.082L273.875 24.5625H276.199L285.359 53H281.688ZM281.688 42.4727V45.5586H267.977V42.4727H281.688ZM295.359 48.6836L302.195 24.5625H306.102L297.273 53H294.52L295.359 48.6836ZM289.227 24.5625L296.004 48.6836L296.902 53H294.148L285.32 24.5625H289.227ZM325.262 49.9336V53H312.918V49.9336H325.262ZM313.562 24.5625V53H309.969V24.5625H313.562ZM323.602 36.7891V39.8555H312.918V36.7891H323.602ZM325.066 24.5625V27.6484H312.918V24.5625H325.066ZM329.871 24.5625H337.82C339.669 24.5625 341.219 24.888 342.469 25.5391C343.732 26.1901 344.682 27.1536 345.32 28.4297C345.971 29.6927 346.297 31.2487 346.297 33.0977C346.297 34.3997 346.082 35.5911 345.652 36.6719C345.223 37.7396 344.598 38.651 343.777 39.4062C342.957 40.1484 341.961 40.7018 340.789 41.0664L339.812 41.4766H332.723L332.684 38.4102H337.781C338.875 38.4102 339.786 38.1758 340.516 37.707C341.245 37.2253 341.792 36.5807 342.156 35.7734C342.521 34.9661 342.703 34.0742 342.703 33.0977C342.703 32.0039 342.54 31.0469 342.215 30.2266C341.889 29.4062 341.368 28.7747 340.652 28.332C339.949 27.8763 339.005 27.6484 337.82 27.6484H333.465V53H329.871V24.5625ZM343.523 53L337.859 40.1094L341.59 40.0898L347.371 52.7656V53H343.523ZM363.543 45.8125C363.543 45.1484 363.465 44.5625 363.309 44.0547C363.152 43.5339 362.879 43.0651 362.488 42.6484C362.098 42.2318 361.551 41.8346 360.848 41.457C360.145 41.0794 359.253 40.6953 358.172 40.3047C357 39.888 355.939 39.4258 354.988 38.918C354.038 38.3971 353.224 37.8047 352.547 37.1406C351.883 36.4766 351.368 35.7148 351.004 34.8555C350.639 33.9961 350.457 33.013 350.457 31.9062C350.457 30.7995 350.646 29.7773 351.023 28.8398C351.414 27.9023 351.961 27.0885 352.664 26.3984C353.38 25.6953 354.24 25.1484 355.242 24.7578C356.245 24.3672 357.365 24.1719 358.602 24.1719C360.451 24.1719 362.007 24.582 363.27 25.4023C364.546 26.2096 365.509 27.2708 366.16 28.5859C366.811 29.888 367.137 31.2812 367.137 32.7656H363.543C363.543 31.6979 363.367 30.7539 363.016 29.9336C362.677 29.1003 362.143 28.4492 361.414 27.9805C360.698 27.4987 359.76 27.2578 358.602 27.2578C357.56 27.2578 356.701 27.4596 356.023 27.8633C355.359 28.2669 354.865 28.8138 354.539 29.5039C354.227 30.194 354.07 30.9818 354.07 31.8672C354.07 32.4661 354.174 33.013 354.383 33.5078C354.591 33.9896 354.91 34.4388 355.34 34.8555C355.783 35.2721 356.329 35.6562 356.98 36.0078C357.645 36.3594 358.426 36.6979 359.324 37.0234C360.717 37.4792 361.909 37.987 362.898 38.5469C363.888 39.1068 364.695 39.7383 365.32 40.4414C365.945 41.1315 366.401 41.9193 366.688 42.8047C366.987 43.6771 367.137 44.6667 367.137 45.7734C367.137 46.9323 366.941 47.9805 366.551 48.918C366.173 49.8555 365.62 50.6562 364.891 51.3203C364.161 51.9844 363.283 52.4987 362.254 52.8633C361.225 53.2148 360.066 53.3906 358.777 53.3906C357.658 53.3906 356.557 53.2083 355.477 52.8438C354.409 52.4792 353.439 51.9323 352.566 51.2031C351.694 50.474 350.997 49.5755 350.477 48.5078C349.956 47.4271 349.695 46.1771 349.695 44.7578H353.289C353.289 45.7344 353.432 46.5742 353.719 47.2773C354.005 47.9674 354.402 48.5404 354.91 48.9961C355.418 49.4518 355.997 49.7904 356.648 50.0117C357.312 50.2201 358.022 50.3242 358.777 50.3242C359.819 50.3242 360.691 50.1419 361.395 49.7773C362.111 49.4128 362.645 48.8919 362.996 48.2148C363.361 47.5378 363.543 46.737 363.543 45.8125ZM387.137 49.9336V53H374.793V49.9336H387.137ZM375.438 24.5625V53H371.844V24.5625H375.438ZM385.477 36.7891V39.8555H374.793V36.7891H385.477ZM386.941 24.5625V27.6484H374.793V24.5625H386.941ZM377.332 22.4531L381.121 16.7109H385.477L380.242 22.4531H377.332ZM407.02 49.9336V53H394.676V49.9336H407.02ZM395.32 24.5625V53H391.727V24.5625H395.32ZM405.359 36.7891V39.8555H394.676V36.7891H405.359ZM406.824 24.5625V27.6484H394.676V24.5625H406.824ZM105.359 100H100.516L100.555 96.9336H105.359C107.065 96.9336 108.452 96.6081 109.52 95.957C110.587 95.293 111.375 94.3164 111.883 93.0273C112.391 91.7253 112.645 90.1172 112.645 88.2031V83.3398C112.645 81.8294 112.501 80.5273 112.215 79.4336C111.928 78.3398 111.499 77.4414 110.926 76.7383C110.353 76.0352 109.63 75.5143 108.758 75.1758C107.885 74.8242 106.863 74.6484 105.691 74.6484H100.418V71.5625H105.691C107.293 71.5625 108.738 71.8164 110.027 72.3242C111.316 72.819 112.423 73.5677 113.348 74.5703C114.272 75.5599 114.975 76.7904 115.457 78.2617C115.952 79.7331 116.199 81.4388 116.199 83.3789V88.2031C116.199 90.1432 115.952 91.849 115.457 93.3203C114.975 94.7917 114.266 96.0221 113.328 97.0117C112.391 98.0013 111.251 98.75 109.91 99.2578C108.582 99.7526 107.065 100 105.359 100ZM102.508 71.5625V100H98.9141V71.5625H102.508ZM137.059 96.9336V100H124.715V96.9336H137.059ZM125.359 71.5625V100H121.766V71.5625H125.359ZM135.398 83.7891V86.8555H124.715V83.7891H135.398ZM136.863 71.5625V74.6484H124.715V71.5625H136.863ZM154.09 92.8125C154.09 92.1484 154.012 91.5625 153.855 91.0547C153.699 90.5339 153.426 90.0651 153.035 89.6484C152.645 89.2318 152.098 88.8346 151.395 88.457C150.691 88.0794 149.799 87.6953 148.719 87.3047C147.547 86.888 146.486 86.4258 145.535 85.918C144.585 85.3971 143.771 84.8047 143.094 84.1406C142.43 83.4766 141.915 82.7148 141.551 81.8555C141.186 80.9961 141.004 80.013 141.004 78.9062C141.004 77.7995 141.193 76.7773 141.57 75.8398C141.961 74.9023 142.508 74.0885 143.211 73.3984C143.927 72.6953 144.786 72.1484 145.789 71.7578C146.792 71.3672 147.911 71.1719 149.148 71.1719C150.997 71.1719 152.553 71.582 153.816 72.4023C155.092 73.2096 156.056 74.2708 156.707 75.5859C157.358 76.888 157.684 78.2812 157.684 79.7656H154.09C154.09 78.6979 153.914 77.7539 153.562 76.9336C153.224 76.1003 152.69 75.4492 151.961 74.9805C151.245 74.4987 150.307 74.2578 149.148 74.2578C148.107 74.2578 147.247 74.4596 146.57 74.8633C145.906 75.2669 145.411 75.8138 145.086 76.5039C144.773 77.194 144.617 77.9818 144.617 78.8672C144.617 79.4661 144.721 80.013 144.93 80.5078C145.138 80.9896 145.457 81.4388 145.887 81.8555C146.329 82.2721 146.876 82.6562 147.527 83.0078C148.191 83.3594 148.973 83.6979 149.871 84.0234C151.264 84.4792 152.456 84.987 153.445 85.5469C154.435 86.1068 155.242 86.7383 155.867 87.4414C156.492 88.1315 156.948 88.9193 157.234 89.8047C157.534 90.6771 157.684 91.6667 157.684 92.7734C157.684 93.9323 157.488 94.9805 157.098 95.918C156.72 96.8555 156.167 97.6562 155.438 98.3203C154.708 98.9844 153.829 99.4987 152.801 99.8633C151.772 100.215 150.613 100.391 149.324 100.391C148.204 100.391 147.104 100.208 146.023 99.8438C144.956 99.4792 143.986 98.9323 143.113 98.2031C142.241 97.474 141.544 96.5755 141.023 95.5078C140.503 94.4271 140.242 93.1771 140.242 91.7578H143.836C143.836 92.7344 143.979 93.5742 144.266 94.2773C144.552 94.9674 144.949 95.5404 145.457 95.9961C145.965 96.4518 146.544 96.7904 147.195 97.0117C147.859 97.2201 148.569 97.3242 149.324 97.3242C150.366 97.3242 151.238 97.1419 151.941 96.7773C152.658 96.4128 153.191 95.8919 153.543 95.2148C153.908 94.5378 154.09 93.737 154.09 92.8125ZM180.633 88.8477H174.422V85.7812H180.633C181.805 85.7812 182.749 85.5469 183.465 85.0781C184.194 84.6094 184.721 83.9583 185.047 83.125C185.385 82.2917 185.555 81.3411 185.555 80.2734C185.555 79.2969 185.385 78.3789 185.047 77.5195C184.721 76.6602 184.194 75.9701 183.465 75.4492C182.749 74.9154 181.805 74.6484 180.633 74.6484H175.164V100H171.57V71.5625H180.633C182.469 71.5625 184.018 71.9336 185.281 72.6758C186.544 73.418 187.501 74.4466 188.152 75.7617C188.816 77.0638 189.148 78.5547 189.148 80.2344C189.148 82.0573 188.816 83.6133 188.152 84.9023C187.501 86.1914 186.544 87.1745 185.281 87.8516C184.018 88.5156 182.469 88.8477 180.633 88.8477ZM195.359 71.5625L201.16 85.8398L206.98 71.5625H211.043L202.957 89.375V100H199.363V89.375L191.277 71.5625H195.359ZM214.793 71.5625H222.742C224.591 71.5625 226.141 71.888 227.391 72.5391C228.654 73.1901 229.604 74.1536 230.242 75.4297C230.893 76.6927 231.219 78.2487 231.219 80.0977C231.219 81.3997 231.004 82.5911 230.574 83.6719C230.145 84.7396 229.52 85.651 228.699 86.4062C227.879 87.1484 226.883 87.7018 225.711 88.0664L224.734 88.4766H217.645L217.605 85.4102H222.703C223.797 85.4102 224.708 85.1758 225.438 84.707C226.167 84.2253 226.714 83.5807 227.078 82.7734C227.443 81.9661 227.625 81.0742 227.625 80.0977C227.625 79.0039 227.462 78.0469 227.137 77.2266C226.811 76.4062 226.29 75.7747 225.574 75.332C224.871 74.8763 223.927 74.6484 222.742 74.6484H218.387V100H214.793V71.5625ZM228.445 100L222.781 87.1094L226.512 87.0898L232.293 99.7656V100H228.445ZM251.316 96.9336V100H238.973V96.9336H251.316ZM239.617 71.5625V100H236.023V71.5625H239.617ZM249.656 83.7891V86.8555H238.973V83.7891H249.656ZM251.121 71.5625V74.6484H238.973V71.5625H251.121ZM241.512 69.4531L245.301 63.7109H249.656L244.422 69.4531H241.512ZM274.5 71.5625V100H270.887L259.5 78.0664V100H255.906V71.5625H259.5L270.945 93.5547V71.5625H274.5ZM296.004 96.9336V100H283.66V96.9336H296.004ZM284.305 71.5625V100H280.711V71.5625H284.305ZM294.344 83.7891V86.8555H283.66V83.7891H294.344ZM295.809 71.5625V74.6484H283.66V71.5625H295.809ZM286.199 69.4531L289.988 63.7109H294.344L289.109 69.4531H286.199ZM315.887 96.9336V100H303.543V96.9336H315.887ZM304.188 71.5625V100H300.594V71.5625H304.188ZM314.227 83.7891V86.8555H303.543V83.7891H314.227ZM315.691 71.5625V74.6484H303.543V71.5625H315.691ZM332.918 92.8125C332.918 92.1484 332.84 91.5625 332.684 91.0547C332.527 90.5339 332.254 90.0651 331.863 89.6484C331.473 89.2318 330.926 88.8346 330.223 88.457C329.52 88.0794 328.628 87.6953 327.547 87.3047C326.375 86.888 325.314 86.4258 324.363 85.918C323.413 85.3971 322.599 84.8047 321.922 84.1406C321.258 83.4766 320.743 82.7148 320.379 81.8555C320.014 80.9961 319.832 80.013 319.832 78.9062C319.832 77.7995 320.021 76.7773 320.398 75.8398C320.789 74.9023 321.336 74.0885 322.039 73.3984C322.755 72.6953 323.615 72.1484 324.617 71.7578C325.62 71.3672 326.74 71.1719 327.977 71.1719C329.826 71.1719 331.382 71.582 332.645 72.4023C333.921 73.2096 334.884 74.2708 335.535 75.5859C336.186 76.888 336.512 78.2812 336.512 79.7656H332.918C332.918 78.6979 332.742 77.7539 332.391 76.9336C332.052 76.1003 331.518 75.4492 330.789 74.9805C330.073 74.4987 329.135 74.2578 327.977 74.2578C326.935 74.2578 326.076 74.4596 325.398 74.8633C324.734 75.2669 324.24 75.8138 323.914 76.5039C323.602 77.194 323.445 77.9818 323.445 78.8672C323.445 79.4661 323.549 80.013 323.758 80.5078C323.966 80.9896 324.285 81.4388 324.715 81.8555C325.158 82.2721 325.704 82.6562 326.355 83.0078C327.02 83.3594 327.801 83.6979 328.699 84.0234C330.092 84.4792 331.284 84.987 332.273 85.5469C333.263 86.1068 334.07 86.7383 334.695 87.4414C335.32 88.1315 335.776 88.9193 336.062 89.8047C336.362 90.6771 336.512 91.6667 336.512 92.7734C336.512 93.9323 336.316 94.9805 335.926 95.918C335.548 96.8555 334.995 97.6562 334.266 98.3203C333.536 98.9844 332.658 99.4987 331.629 99.8633C330.6 100.215 329.441 100.391 328.152 100.391C327.033 100.391 325.932 100.208 324.852 99.8438C323.784 99.4792 322.814 98.9323 321.941 98.2031C321.069 97.474 320.372 96.5755 319.852 95.5078C319.331 94.4271 319.07 93.1771 319.07 91.7578H322.664C322.664 92.7344 322.807 93.5742 323.094 94.2773C323.38 94.9674 323.777 95.5404 324.285 95.9961C324.793 96.4518 325.372 96.7904 326.023 97.0117C326.688 97.2201 327.397 97.3242 328.152 97.3242C329.194 97.3242 330.066 97.1419 330.77 96.7773C331.486 96.4128 332.02 95.8919 332.371 95.2148C332.736 94.5378 332.918 93.737 332.918 92.8125Z" fill="black"/>
<path d="M116.258 128.629C116.258 127.841 116.355 127.118 116.551 126.461C116.753 125.797 117.039 125.227 117.41 124.752C117.775 124.277 118.217 123.906 118.738 123.639C119.259 123.372 119.842 123.238 120.486 123.238C121.118 123.238 121.668 123.346 122.137 123.561C122.612 123.769 123.022 124.075 123.367 124.479V119H125.174V134H123.514L123.436 132.887C123.084 133.316 122.664 133.642 122.176 133.863C121.688 134.085 121.118 134.195 120.467 134.195C119.829 134.195 119.249 134.059 118.729 133.785C118.214 133.512 117.775 133.134 117.41 132.652C117.046 132.171 116.762 131.604 116.561 130.953C116.359 130.296 116.258 129.589 116.258 128.834V128.629ZM118.064 128.834C118.064 129.348 118.12 129.837 118.23 130.299C118.341 130.761 118.514 131.168 118.748 131.52C118.976 131.871 119.269 132.151 119.627 132.359C119.985 132.561 120.415 132.662 120.916 132.662C121.521 132.662 122.023 132.525 122.42 132.252C122.817 131.979 123.133 131.611 123.367 131.148V126.246C123.133 125.816 122.817 125.465 122.42 125.191C122.023 124.911 121.528 124.771 120.936 124.771C120.428 124.771 119.992 124.876 119.627 125.084C119.269 125.292 118.976 125.572 118.748 125.924C118.514 126.282 118.341 126.695 118.23 127.164C118.12 127.626 118.064 128.115 118.064 128.629V128.834ZM133.279 134.195C132.537 134.195 131.854 134.068 131.229 133.814C130.61 133.561 130.079 133.206 129.637 132.75C129.194 132.294 128.849 131.754 128.602 131.129C128.354 130.504 128.23 129.824 128.23 129.088V128.678C128.23 127.825 128.367 127.063 128.641 126.393C128.914 125.715 129.279 125.143 129.734 124.674C130.184 124.212 130.695 123.857 131.268 123.609C131.847 123.362 132.439 123.238 133.045 123.238C133.807 123.238 134.471 123.372 135.037 123.639C135.61 123.899 136.085 124.26 136.463 124.723C136.84 125.191 137.12 125.742 137.303 126.373C137.492 127.005 137.586 127.688 137.586 128.424V129.234H130.037V129.303C130.083 129.817 130.184 130.27 130.34 130.66C130.503 131.051 130.724 131.396 131.004 131.695C131.29 132.014 131.635 132.265 132.039 132.447C132.443 132.63 132.889 132.721 133.377 132.721C134.021 132.721 134.594 132.59 135.096 132.33C135.597 132.07 136.014 131.725 136.346 131.295L137.449 132.154C137.098 132.688 136.57 133.163 135.867 133.58C135.171 133.99 134.308 134.195 133.279 134.195ZM133.045 124.723C132.68 124.723 132.335 124.791 132.01 124.928C131.684 125.058 131.391 125.25 131.131 125.504C130.87 125.764 130.649 126.083 130.467 126.461C130.291 126.832 130.167 127.262 130.096 127.75H135.779V127.662C135.779 127.337 135.717 126.988 135.594 126.617C135.47 126.24 135.298 125.914 135.076 125.641C134.855 125.367 134.575 125.146 134.236 124.977C133.904 124.807 133.507 124.723 133.045 124.723ZM161.844 129.723C161.759 130.38 161.59 130.986 161.336 131.539C161.082 132.086 160.753 132.555 160.35 132.945C159.939 133.342 159.454 133.652 158.895 133.873C158.341 134.088 157.723 134.195 157.039 134.195C156.453 134.195 155.919 134.114 155.438 133.951C154.962 133.782 154.539 133.551 154.168 133.258C153.79 132.965 153.465 132.62 153.191 132.223C152.924 131.826 152.703 131.393 152.527 130.924C152.345 130.455 152.208 129.964 152.117 129.449C152.033 128.935 151.987 128.414 151.98 127.887V125.904C151.987 125.377 152.033 124.856 152.117 124.342C152.208 123.827 152.345 123.336 152.527 122.867C152.703 122.398 152.924 121.965 153.191 121.568C153.465 121.165 153.79 120.816 154.168 120.523C154.539 120.23 154.962 120.003 155.438 119.84C155.913 119.671 156.447 119.586 157.039 119.586C157.749 119.586 158.383 119.697 158.943 119.918C159.503 120.133 159.985 120.439 160.389 120.836C160.792 121.24 161.115 121.721 161.355 122.281C161.603 122.841 161.766 123.46 161.844 124.137H160.037C159.979 123.707 159.878 123.307 159.734 122.936C159.591 122.564 159.399 122.239 159.158 121.959C158.917 121.679 158.621 121.461 158.27 121.305C157.924 121.142 157.514 121.061 157.039 121.061C156.609 121.061 156.229 121.132 155.896 121.275C155.571 121.412 155.291 121.601 155.057 121.842C154.816 122.083 154.614 122.363 154.451 122.682C154.295 123.001 154.168 123.339 154.07 123.697C153.973 124.055 153.901 124.423 153.855 124.801C153.816 125.172 153.797 125.533 153.797 125.885V127.887C153.797 128.238 153.816 128.603 153.855 128.98C153.901 129.352 153.973 129.716 154.07 130.074C154.168 130.439 154.295 130.781 154.451 131.1C154.607 131.419 154.806 131.699 155.047 131.939C155.288 132.187 155.571 132.382 155.896 132.525C156.222 132.662 156.603 132.73 157.039 132.73C157.514 132.73 157.924 132.656 158.27 132.506C158.621 132.356 158.917 132.145 159.158 131.871C159.399 131.604 159.591 131.288 159.734 130.924C159.878 130.553 159.979 130.152 160.037 129.723H161.844ZM164.93 119H170.33V132.438H173.777V134H164.93V132.438H168.523V120.572H164.93V119ZM183.602 134C183.53 133.863 183.471 133.694 183.426 133.492C183.387 133.284 183.357 133.069 183.338 132.848C183.156 133.03 182.951 133.202 182.723 133.365C182.501 133.528 182.257 133.671 181.99 133.795C181.717 133.919 181.427 134.016 181.121 134.088C180.815 134.16 180.49 134.195 180.145 134.195C179.585 134.195 179.077 134.114 178.621 133.951C178.172 133.788 177.791 133.567 177.479 133.287C177.16 133.014 176.912 132.688 176.736 132.311C176.567 131.926 176.482 131.513 176.482 131.07C176.482 130.491 176.596 129.983 176.824 129.547C177.059 129.111 177.387 128.746 177.811 128.453C178.234 128.167 178.742 127.952 179.334 127.809C179.933 127.665 180.6 127.594 181.336 127.594H183.309V126.764C183.309 126.445 183.25 126.158 183.133 125.904C183.016 125.65 182.85 125.432 182.635 125.25C182.42 125.074 182.156 124.938 181.844 124.84C181.538 124.742 181.193 124.693 180.809 124.693C180.451 124.693 180.128 124.739 179.842 124.83C179.562 124.921 179.324 125.042 179.129 125.191C178.934 125.341 178.781 125.52 178.67 125.729C178.566 125.93 178.514 126.142 178.514 126.363H176.697C176.704 125.979 176.801 125.602 176.99 125.23C177.186 124.859 177.465 124.524 177.83 124.225C178.188 123.932 178.624 123.694 179.139 123.512C179.66 123.329 180.249 123.238 180.906 123.238C181.505 123.238 182.062 123.313 182.576 123.463C183.09 123.606 183.536 123.824 183.914 124.117C184.285 124.417 184.578 124.788 184.793 125.23C185.008 125.673 185.115 126.191 185.115 126.783V131.695C185.115 132.047 185.148 132.421 185.213 132.818C185.278 133.209 185.369 133.551 185.486 133.844V134H183.602ZM180.408 132.623C180.76 132.623 181.089 132.577 181.395 132.486C181.701 132.395 181.98 132.275 182.234 132.125C182.482 131.975 182.697 131.806 182.879 131.617C183.061 131.422 183.204 131.22 183.309 131.012V128.873H181.629C181.004 128.873 180.457 128.928 179.988 129.039C179.526 129.143 179.158 129.306 178.885 129.527C178.689 129.684 178.54 129.869 178.436 130.084C178.338 130.299 178.289 130.543 178.289 130.816C178.289 131.077 178.331 131.318 178.416 131.539C178.507 131.76 178.641 131.949 178.816 132.105C178.992 132.268 179.214 132.395 179.48 132.486C179.747 132.577 180.057 132.623 180.408 132.623ZM195.594 123.238C195.926 123.238 196.271 123.261 196.629 123.307C196.993 123.352 197.267 123.414 197.449 123.492L197.205 125.26C196.854 125.182 196.518 125.126 196.199 125.094C195.887 125.055 195.558 125.035 195.213 125.035C194.77 125.035 194.37 125.09 194.012 125.201C193.654 125.305 193.341 125.462 193.074 125.67C192.833 125.852 192.622 126.077 192.439 126.344C192.264 126.604 192.117 126.897 192 127.223V134H190.184V123.434H191.902L191.98 124.85L191.99 125.113C192.42 124.534 192.934 124.078 193.533 123.746C194.139 123.408 194.826 123.238 195.594 123.238ZM200.965 123.434H206.365V132.438H209.812V134H200.965V132.438H204.559V125.006H200.965V123.434ZM204.324 120.66C204.324 120.504 204.347 120.357 204.393 120.221C204.445 120.084 204.523 119.967 204.627 119.869C204.712 119.785 204.819 119.719 204.949 119.674C205.086 119.622 205.239 119.596 205.408 119.596C205.577 119.596 205.727 119.622 205.857 119.674C205.988 119.719 206.095 119.785 206.18 119.869C206.284 119.96 206.362 120.074 206.414 120.211C206.466 120.348 206.492 120.497 206.492 120.66C206.492 120.953 206.401 121.197 206.219 121.393C206.036 121.588 205.766 121.686 205.408 121.686C205.044 121.686 204.77 121.588 204.588 121.393C204.412 121.197 204.324 120.953 204.324 120.66ZM219.715 131.197C219.715 130.982 219.673 130.79 219.588 130.621C219.503 130.445 219.36 130.286 219.158 130.143C218.956 129.999 218.689 129.869 218.357 129.752C218.025 129.628 217.612 129.518 217.117 129.42C216.512 129.296 215.958 129.146 215.457 128.971C214.962 128.795 214.539 128.583 214.188 128.336C213.829 128.095 213.553 127.812 213.357 127.486C213.162 127.154 213.064 126.77 213.064 126.334C213.064 125.904 213.165 125.504 213.367 125.133C213.569 124.755 213.852 124.426 214.217 124.146C214.581 123.867 215.014 123.645 215.516 123.482C216.023 123.32 216.58 123.238 217.186 123.238C217.837 123.238 218.423 123.323 218.943 123.492C219.464 123.661 219.907 123.896 220.271 124.195C220.636 124.495 220.916 124.846 221.111 125.25C221.313 125.647 221.414 126.077 221.414 126.539H219.607C219.607 126.311 219.549 126.09 219.432 125.875C219.314 125.654 219.152 125.458 218.943 125.289C218.735 125.12 218.481 124.983 218.182 124.879C217.889 124.775 217.557 124.723 217.186 124.723C216.801 124.723 216.463 124.765 216.17 124.85C215.883 124.934 215.646 125.048 215.457 125.191C215.262 125.335 215.115 125.501 215.018 125.689C214.92 125.878 214.871 126.074 214.871 126.275C214.871 126.484 214.91 126.669 214.988 126.832C215.066 126.995 215.203 127.141 215.398 127.271C215.587 127.402 215.841 127.519 216.16 127.623C216.486 127.727 216.896 127.828 217.391 127.926C218.042 128.062 218.624 128.222 219.139 128.404C219.653 128.58 220.086 128.792 220.438 129.039C220.789 129.293 221.056 129.586 221.238 129.918C221.427 130.25 221.521 130.634 221.521 131.07C221.521 131.539 221.414 131.965 221.199 132.35C220.991 132.734 220.698 133.062 220.32 133.336C219.943 133.609 219.49 133.821 218.963 133.971C218.436 134.12 217.859 134.195 217.234 134.195C216.518 134.195 215.88 134.101 215.32 133.912C214.76 133.717 214.288 133.46 213.904 133.141C213.514 132.828 213.214 132.464 213.006 132.047C212.804 131.63 212.703 131.197 212.703 130.748H214.51C214.536 131.119 214.633 131.432 214.803 131.686C214.979 131.939 215.197 132.145 215.457 132.301C215.711 132.457 215.994 132.568 216.307 132.633C216.619 132.698 216.928 132.73 217.234 132.73C217.716 132.73 218.136 132.675 218.494 132.564C218.852 132.447 219.132 132.288 219.334 132.086C219.458 131.962 219.552 131.826 219.617 131.676C219.682 131.526 219.715 131.367 219.715 131.197ZM231.727 131.197C231.727 130.982 231.684 130.79 231.6 130.621C231.515 130.445 231.372 130.286 231.17 130.143C230.968 129.999 230.701 129.869 230.369 129.752C230.037 129.628 229.624 129.518 229.129 129.42C228.523 129.296 227.97 129.146 227.469 128.971C226.974 128.795 226.551 128.583 226.199 128.336C225.841 128.095 225.564 127.812 225.369 127.486C225.174 127.154 225.076 126.77 225.076 126.334C225.076 125.904 225.177 125.504 225.379 125.133C225.581 124.755 225.864 124.426 226.229 124.146C226.593 123.867 227.026 123.645 227.527 123.482C228.035 123.32 228.592 123.238 229.197 123.238C229.848 123.238 230.434 123.323 230.955 123.492C231.476 123.661 231.919 123.896 232.283 124.195C232.648 124.495 232.928 124.846 233.123 125.25C233.325 125.647 233.426 126.077 233.426 126.539H231.619C231.619 126.311 231.561 126.09 231.443 125.875C231.326 125.654 231.163 125.458 230.955 125.289C230.747 125.12 230.493 124.983 230.193 124.879C229.9 124.775 229.568 124.723 229.197 124.723C228.813 124.723 228.475 124.765 228.182 124.85C227.895 124.934 227.658 125.048 227.469 125.191C227.273 125.335 227.127 125.501 227.029 125.689C226.932 125.878 226.883 126.074 226.883 126.275C226.883 126.484 226.922 126.669 227 126.832C227.078 126.995 227.215 127.141 227.41 127.271C227.599 127.402 227.853 127.519 228.172 127.623C228.497 127.727 228.908 127.828 229.402 127.926C230.053 128.062 230.636 128.222 231.15 128.404C231.665 128.58 232.098 128.792 232.449 129.039C232.801 129.293 233.068 129.586 233.25 129.918C233.439 130.25 233.533 130.634 233.533 131.07C233.533 131.539 233.426 131.965 233.211 132.35C233.003 132.734 232.71 133.062 232.332 133.336C231.954 133.609 231.502 133.821 230.975 133.971C230.447 134.12 229.871 134.195 229.246 134.195C228.53 134.195 227.892 134.101 227.332 133.912C226.772 133.717 226.3 133.46 225.916 133.141C225.525 132.828 225.226 132.464 225.018 132.047C224.816 131.63 224.715 131.197 224.715 130.748H226.521C226.548 131.119 226.645 131.432 226.814 131.686C226.99 131.939 227.208 132.145 227.469 132.301C227.723 132.457 228.006 132.568 228.318 132.633C228.631 132.698 228.94 132.73 229.246 132.73C229.728 132.73 230.148 132.675 230.506 132.564C230.864 132.447 231.144 132.288 231.346 132.086C231.469 131.962 231.564 131.826 231.629 131.676C231.694 131.526 231.727 131.367 231.727 131.197ZM241.385 134.195C240.643 134.195 239.959 134.068 239.334 133.814C238.715 133.561 238.185 133.206 237.742 132.75C237.299 132.294 236.954 131.754 236.707 131.129C236.46 130.504 236.336 129.824 236.336 129.088V128.678C236.336 127.825 236.473 127.063 236.746 126.393C237.02 125.715 237.384 125.143 237.84 124.674C238.289 124.212 238.8 123.857 239.373 123.609C239.952 123.362 240.545 123.238 241.15 123.238C241.912 123.238 242.576 123.372 243.143 123.639C243.715 123.899 244.191 124.26 244.568 124.723C244.946 125.191 245.226 125.742 245.408 126.373C245.597 127.005 245.691 127.688 245.691 128.424V129.234H238.143V129.303C238.188 129.817 238.289 130.27 238.445 130.66C238.608 131.051 238.829 131.396 239.109 131.695C239.396 132.014 239.741 132.265 240.145 132.447C240.548 132.63 240.994 132.721 241.482 132.721C242.127 132.721 242.7 132.59 243.201 132.33C243.702 132.07 244.119 131.725 244.451 131.295L245.555 132.154C245.203 132.688 244.676 133.163 243.973 133.58C243.276 133.99 242.413 134.195 241.385 134.195ZM241.15 124.723C240.786 124.723 240.441 124.791 240.115 124.928C239.79 125.058 239.497 125.25 239.236 125.504C238.976 125.764 238.755 126.083 238.572 126.461C238.396 126.832 238.273 127.262 238.201 127.75H243.885V127.662C243.885 127.337 243.823 126.988 243.699 126.617C243.576 126.24 243.403 125.914 243.182 125.641C242.96 125.367 242.68 125.146 242.342 124.977C242.01 124.807 241.613 124.723 241.15 124.723ZM260.086 130.357C260.086 129.921 260.151 129.518 260.281 129.146C260.411 128.775 260.594 128.427 260.828 128.102C261.03 127.828 261.261 127.568 261.521 127.32C261.788 127.073 262.081 126.829 262.4 126.588L262.752 126.334C262.511 126.008 262.296 125.696 262.107 125.396C261.919 125.09 261.762 124.791 261.639 124.498C261.541 124.257 261.463 124.013 261.404 123.766C261.352 123.518 261.326 123.264 261.326 123.004C261.326 122.451 261.408 121.962 261.57 121.539C261.74 121.109 261.977 120.748 262.283 120.455C262.589 120.169 262.957 119.951 263.387 119.801C263.816 119.651 264.298 119.576 264.832 119.576C265.294 119.576 265.714 119.658 266.092 119.82C266.469 119.983 266.792 120.201 267.059 120.475C267.319 120.755 267.521 121.077 267.664 121.441C267.807 121.806 267.879 122.19 267.879 122.594C267.879 122.939 267.827 123.255 267.723 123.541C267.625 123.821 267.488 124.085 267.312 124.332C267.13 124.579 266.915 124.814 266.668 125.035C266.421 125.257 266.154 125.475 265.867 125.689L264.949 126.471L267.947 130.406C268.175 129.99 268.354 129.534 268.484 129.039C268.615 128.544 268.683 128.01 268.689 127.438H270.32C270.32 128.271 270.2 129.046 269.959 129.762C269.725 130.471 269.38 131.113 268.924 131.686L270.691 134H268.533L267.723 132.926C267.54 133.082 267.348 133.225 267.146 133.355C266.951 133.486 266.749 133.6 266.541 133.697C266.196 133.86 265.835 133.984 265.457 134.068C265.086 134.153 264.702 134.195 264.305 134.195C263.66 134.195 263.077 134.101 262.557 133.912C262.036 133.723 261.593 133.46 261.229 133.121C260.864 132.783 260.581 132.379 260.379 131.91C260.184 131.435 260.086 130.917 260.086 130.357ZM264.305 132.73C264.572 132.73 264.835 132.701 265.096 132.643C265.356 132.584 265.607 132.499 265.848 132.389C266.023 132.311 266.193 132.219 266.355 132.115C266.525 132.005 266.688 131.884 266.844 131.754L263.689 127.545L263.416 127.779C263.09 128.046 262.827 128.307 262.625 128.561C262.423 128.814 262.27 129.052 262.166 129.273C262.055 129.501 261.98 129.71 261.941 129.898C261.909 130.081 261.893 130.234 261.893 130.357C261.893 130.689 261.945 130.999 262.049 131.285C262.153 131.572 262.306 131.822 262.508 132.037C262.71 132.252 262.96 132.421 263.26 132.545C263.559 132.669 263.908 132.73 264.305 132.73ZM263.143 122.984C263.143 123.147 263.159 123.313 263.191 123.482C263.224 123.645 263.273 123.808 263.338 123.971C263.416 124.186 263.517 124.404 263.641 124.625C263.764 124.846 263.908 125.074 264.07 125.309L265.213 124.4C265.415 124.264 265.581 124.12 265.711 123.971C265.841 123.821 265.942 123.668 266.014 123.512C266.085 123.362 266.134 123.209 266.16 123.053C266.193 122.896 266.209 122.743 266.209 122.594C266.209 122.398 266.176 122.21 266.111 122.027C266.053 121.839 265.965 121.673 265.848 121.529C265.724 121.393 265.577 121.282 265.408 121.197C265.239 121.106 265.047 121.061 264.832 121.061C264.552 121.061 264.305 121.113 264.09 121.217C263.882 121.321 263.709 121.461 263.572 121.637C263.429 121.812 263.322 122.018 263.25 122.252C263.178 122.48 263.143 122.724 263.143 122.984ZM294.354 121.324H289.959V134H288.201V121.324H283.807V119.781H294.354V121.324ZM301.443 134.195C300.701 134.195 300.018 134.068 299.393 133.814C298.774 133.561 298.243 133.206 297.801 132.75C297.358 132.294 297.013 131.754 296.766 131.129C296.518 130.504 296.395 129.824 296.395 129.088V128.678C296.395 127.825 296.531 127.063 296.805 126.393C297.078 125.715 297.443 125.143 297.898 124.674C298.348 124.212 298.859 123.857 299.432 123.609C300.011 123.362 300.604 123.238 301.209 123.238C301.971 123.238 302.635 123.372 303.201 123.639C303.774 123.899 304.249 124.26 304.627 124.723C305.005 125.191 305.285 125.742 305.467 126.373C305.656 127.005 305.75 127.688 305.75 128.424V129.234H298.201V129.303C298.247 129.817 298.348 130.27 298.504 130.66C298.667 131.051 298.888 131.396 299.168 131.695C299.454 132.014 299.799 132.265 300.203 132.447C300.607 132.63 301.053 132.721 301.541 132.721C302.186 132.721 302.758 132.59 303.26 132.33C303.761 132.07 304.178 131.725 304.51 131.295L305.613 132.154C305.262 132.688 304.734 133.163 304.031 133.58C303.335 133.99 302.472 134.195 301.443 134.195ZM301.209 124.723C300.844 124.723 300.499 124.791 300.174 124.928C299.848 125.058 299.555 125.25 299.295 125.504C299.035 125.764 298.813 126.083 298.631 126.461C298.455 126.832 298.331 127.262 298.26 127.75H303.943V127.662C303.943 127.337 303.882 126.988 303.758 126.617C303.634 126.24 303.462 125.914 303.24 125.641C303.019 125.367 302.739 125.146 302.4 124.977C302.068 124.807 301.671 124.723 301.209 124.723ZM302.088 119.322H304.275L301.658 121.92H300.291L302.088 119.322ZM308.279 128.619C308.279 127.857 308.39 127.151 308.611 126.5C308.833 125.842 309.152 125.273 309.568 124.791C309.979 124.309 310.48 123.932 311.072 123.658C311.665 123.378 312.332 123.238 313.074 123.238C313.823 123.238 314.493 123.378 315.086 123.658C315.685 123.932 316.193 124.309 316.609 124.791C317.02 125.273 317.335 125.842 317.557 126.5C317.778 127.151 317.889 127.857 317.889 128.619V128.834C317.889 129.596 317.778 130.302 317.557 130.953C317.335 131.604 317.02 132.171 316.609 132.652C316.193 133.134 315.688 133.512 315.096 133.785C314.503 134.059 313.836 134.195 313.094 134.195C312.345 134.195 311.671 134.059 311.072 133.785C310.48 133.512 309.979 133.134 309.568 132.652C309.152 132.171 308.833 131.604 308.611 130.953C308.39 130.302 308.279 129.596 308.279 128.834V128.619ZM310.086 128.834C310.086 129.355 310.148 129.853 310.271 130.328C310.395 130.797 310.584 131.21 310.838 131.568C311.085 131.926 311.398 132.21 311.775 132.418C312.153 132.626 312.592 132.73 313.094 132.73C313.589 132.73 314.021 132.626 314.393 132.418C314.77 132.21 315.086 131.926 315.34 131.568C315.587 131.21 315.773 130.797 315.896 130.328C316.02 129.853 316.082 129.355 316.082 128.834V128.619C316.082 128.105 316.017 127.613 315.887 127.145C315.763 126.669 315.577 126.253 315.33 125.895C315.076 125.536 314.76 125.253 314.383 125.045C314.012 124.83 313.576 124.723 313.074 124.723C312.573 124.723 312.137 124.83 311.766 125.045C311.395 125.253 311.085 125.536 310.838 125.895C310.584 126.253 310.395 126.669 310.271 127.145C310.148 127.613 310.086 128.105 310.086 128.619V128.834Z" fill="black"/>
</svg>
